<svg width="1" height="1" viewBox="0 0 1 1" fill="none" xmlns="http://www.w3.org/2000/svg">
<path d="M34.2135 17.2281C34.2135 17.557 33.954 17.8234 33.6336 17.8234C33.3133 17.8234 33.0538 17.557 33.0538 17.2281V12.1906H6.15962V30.503H26.2441C26.5645 30.503 26.8239 30.7694 26.8239 31.0983C26.8239 31.4272 26.5645 31.6936 26.2441 31.6936H21.677V34.8094H25.3108C25.6312 34.8094 25.8906 35.0758 25.8906 35.4047C25.8906 35.7336 25.6312 36 25.3108 36H14.6043C14.284 36 14.0245 35.7336 14.0245 35.4047C14.0245 35.0758 14.284 34.8094 14.6043 34.8094H18.2382V31.6936H5.57981C5.25944 31.6936 5 31.4272 5 31.0983V11.5953C5 11.2664 5.25944 11 5.57981 11H33.6354C33.9558 11 34.2152 11.2664 34.2152 11.5953V17.2281H34.2135ZM33.6336 22.9557C35.9337 22.9557 37.7985 24.8702 37.7985 27.2317C37.7985 29.5931 35.9337 31.5077 33.6336 31.5077C31.3336 31.5077 29.4688 29.5931 29.4688 27.2317C29.4688 24.8702 31.3336 22.9557 33.6336 22.9557ZM35.7579 25.0508C34.5843 23.8459 32.683 23.8459 31.5094 25.0508C30.3359 26.2556 30.3359 28.2077 31.5094 29.4126C32.683 30.6174 34.5843 30.6174 35.7579 29.4126C36.9314 28.2077 36.9314 26.2556 35.7579 25.0508ZM35.1241 21.1162C35.7126 21.2664 36.275 21.5077 36.7904 21.8259L38.6883 20.276L40.4086 22.0422L38.899 23.9907C39.2106 24.5216 39.444 25.0972 39.5902 25.7015L42 25.9821V28.4794L39.5902 28.7601C39.444 29.3643 39.2106 29.9399 38.899 30.4709L40.4086 32.4194L38.6883 34.1856L36.7904 32.6357C36.2733 32.9539 35.7109 33.1952 35.1241 33.3454L34.8507 35.8177H32.4183L32.1449 33.3454C31.5582 33.1952 30.994 32.9539 30.4786 32.6357L28.5808 34.1856L26.8605 32.4194L28.3701 30.4709C28.0584 29.9399 27.8251 29.3643 27.6788 28.7601L25.269 28.4794V25.9821L27.6788 25.7015C27.8251 25.0972 28.0584 24.5216 28.3701 23.9907L26.8605 22.0422L28.5808 20.276L30.4786 21.8259C30.9958 21.5077 31.5582 21.2664 32.1449 21.1162L32.4183 18.6439H34.8507L35.1241 21.1162ZM35.5385 22.507C34.99 22.2728 34.6296 22.221 34.0689 22.1208L33.8165 19.8363H33.4526L33.2001 22.1208C32.6394 22.221 32.279 22.2746 31.7305 22.507C31.1768 22.7429 30.8843 22.9682 30.4212 23.3007L28.6696 21.8688L28.4119 22.1334L29.8065 23.9317C29.4809 24.4072 29.2633 24.7058 29.0335 25.276C28.8054 25.8427 28.7549 26.2074 28.6556 26.7848L26.4304 27.044V27.4176L28.6556 27.6768C28.7531 28.2524 28.8036 28.6189 29.0335 29.1856C29.2633 29.754 29.4827 30.0543 29.8065 30.5299L28.4119 32.3282L28.6696 32.5928L30.4212 31.1609C30.8843 31.4952 31.1751 31.7204 31.7305 31.9564C32.279 32.1906 32.6394 32.2424 33.2001 32.3425L33.4526 34.6271H33.8165L34.0689 32.3425C34.6296 32.2424 34.99 32.1888 35.5385 31.9564C36.0922 31.7204 36.3847 31.4952 36.8479 31.1627L38.5995 32.5946L38.8572 32.33L37.4625 30.5316C37.7881 30.0561 38.0057 29.7576 38.2356 29.1873C38.4637 28.6207 38.5142 28.256 38.6134 27.6786L40.8386 27.4194V27.0458L38.6134 26.7866C38.5159 26.2109 38.4654 25.8445 38.2356 25.2778C38.0057 24.7093 37.7864 24.409 37.4625 23.9335L38.8572 22.1351L38.5995 21.8706L36.8479 23.3025C36.3847 22.9682 36.0939 22.7429 35.5385 22.507ZM20.5156 34.8112V31.6954H19.3995V34.8112H20.5156Z" fill="#BEC3CB"/>
</svg>
