<svg width="37" height="37" viewBox="0 0 37 37" fill="none" xmlns="http://www.w3.org/2000/svg">
<path d="M14.4531 28.3281H7.22656V18.5H14.933M22.4428 18.5H30.3516V28.3281H23.125" stroke="#C3C6CB" stroke-width="1.2" stroke-linejoin="round"/>
<path d="M18.7891 26.3047C20.2259 26.3047 21.3906 25.1399 21.3906 23.7031C21.3906 22.2663 20.2259 21.1016 18.7891 21.1016C17.3523 21.1016 16.1875 22.2663 16.1875 23.7031C16.1875 25.1399 17.3523 26.3047 18.7891 26.3047Z" stroke="#C3C6CB" stroke-width="1.2" stroke-linejoin="round"/>
<path d="M18.7891 30.0625C22.3012 30.0625 25.1484 27.2153 25.1484 23.7031C25.1484 20.1909 22.3012 17.3438 18.7891 17.3438C15.2769 17.3438 12.4297 20.1909 12.4297 23.7031C12.4297 27.2153 15.2769 30.0625 18.7891 30.0625Z" stroke="#C3C6CB" stroke-width="1.2" stroke-linejoin="round"/>
<path d="M15.4591 18.5463L16.4766 15.8984M16.4766 15.8984V11.5625M16.4766 15.8984H21.1016M21.9688 18.5L21.1016 15.8984M21.1016 15.8984V11.5625M10.5334 5.49219V5.78125C10.5327 6.5065 10.675 7.22479 10.9522 7.89498C11.2293 8.56517 11.636 9.17412 12.1488 9.68695C12.6617 10.1998 13.2706 10.6064 13.9408 10.8836C14.611 11.1608 15.3293 11.3031 16.0545 11.3023H21.2577C22.7174 11.2962 24.1152 10.7117 25.1447 9.67674C26.1742 8.64184 26.7514 7.24101 26.7498 5.78125V5.49219M2.89062 5.20312H34.6875" stroke="#C3C6CB" stroke-width="1.2" stroke-linejoin="round"/>
</svg>
