<svg width="42" height="42" viewBox="0 0 42 42" fill="none" xmlns="http://www.w3.org/2000/svg">
<path d="M6.80445 36.7688C6.53276 36.7688 6.31274 36.5488 6.31274 36.2771C6.31274 36.2624 6.31274 36.2476 6.31422 36.2343V5.72362C6.31422 5.45341 6.53423 5.2334 6.80445 5.2334C7.07466 5.2334 7.29467 5.45341 7.29467 5.72362V35.7854H9.954V26.8654C9.954 26.5937 10.174 26.3737 10.4457 26.3737H13.0932C13.3649 26.3737 13.5849 26.5937 13.5849 26.8654V35.7854H15.5444V23.1149C15.5444 22.8432 15.7644 22.6231 16.0361 22.6231H18.6836C18.9553 22.6231 19.1753 22.8432 19.1753 23.1149V35.7854H21.1347V26.8654C21.1347 26.5937 21.3547 26.3737 21.6264 26.3737H24.2739C24.5456 26.3737 24.7656 26.5937 24.7656 26.8654V35.7854H26.5405V20.6888C26.5405 20.4171 26.7605 20.1971 27.0322 20.1971H29.6797C29.9514 20.1971 30.1714 20.4171 30.1714 20.6888V35.7854H31.9433V16.0937C31.9433 15.822 32.1633 15.602 32.435 15.602H35.0855C35.3572 15.602 35.5772 15.822 35.5772 16.0937V35.7854H37.1955C37.4672 35.7854 37.6872 36.0054 37.6872 36.2771C37.6872 36.5488 37.4672 36.7688 37.1955 36.7688H6.80297H6.80445ZM12.8954 22.6468L15.6521 20.6475C15.5813 20.454 15.5429 20.2444 15.5429 20.0258C15.5429 19.0232 16.3565 18.2096 17.3591 18.2096C18.5625 18.2096 19.4248 19.3569 19.1103 20.5057L21.7785 22.3145C22.3175 21.8583 23.0794 21.7549 23.7232 22.0576L26.8417 18.4518C26.3648 17.7312 26.4637 16.7759 27.0721 16.166C27.6952 15.5429 28.6786 15.4558 29.4006 15.9637L32.0969 13.7636C31.7971 13.0755 31.9536 12.2782 32.4778 11.754C32.8071 11.4247 33.2604 11.2224 33.7625 11.2224C34.7651 11.2224 35.5787 12.036 35.5787 13.0386C35.5787 14.0412 34.7651 14.8548 33.7625 14.8548C33.3741 14.8548 33.0138 14.7323 32.7185 14.5241L30.0223 16.7242C30.322 17.4123 30.1655 18.2096 29.6413 18.7338C29.1024 19.2728 28.2799 19.4204 27.5844 19.0941L24.4659 22.6999C24.6564 22.9864 24.7671 23.3319 24.7671 23.7011C24.7671 24.7037 23.9535 25.5173 22.9509 25.5173C21.7076 25.5173 20.8379 24.2961 21.2292 23.1252L18.6068 21.3459C17.9497 21.9661 16.9353 22.0089 16.2295 21.4434L13.4757 23.4397C13.7222 24.1101 13.5524 24.8557 13.0548 25.3519C12.3461 26.0606 11.1958 26.0606 10.4871 25.3519C10.1578 25.0226 9.95548 24.5693 9.95548 24.0672C9.95548 23.0646 10.7691 22.251 11.7717 22.251C12.1969 22.251 12.5882 22.3972 12.8983 22.6423L12.8954 22.6468ZM18.0767 20.4467C18.4045 19.8664 17.9822 19.196 17.3591 19.196C16.8999 19.196 16.5278 19.5681 16.5278 20.0273C16.5278 20.4865 16.8999 20.8586 17.3591 20.8586C17.6647 20.8586 17.932 20.6932 18.0767 20.4467ZM23.5371 23.1149C23.2123 22.79 22.6866 22.79 22.3618 23.1149C22.0369 23.4397 22.0369 23.9654 22.3618 24.2902C22.5124 24.4408 22.7206 24.5338 22.9494 24.5338C23.4086 24.5338 23.7808 24.1617 23.7808 23.7025C23.7808 23.4722 23.6877 23.2655 23.5371 23.1149ZM34.5908 13.0401C34.5908 12.5809 34.2187 12.2088 33.7595 12.2088C33.3003 12.2088 32.9282 12.5809 32.9282 13.0401C32.9282 13.4993 33.3003 13.8714 33.7595 13.8714C34.2187 13.8714 34.5908 13.4993 34.5908 13.0401ZM28.9429 16.8645C28.618 16.5396 28.0924 16.5396 27.7675 16.8645C27.6169 17.0151 27.5239 17.2233 27.5239 17.4521C27.5239 17.9114 27.896 18.2835 28.3552 18.2835C28.8144 18.2835 29.1865 17.9114 29.1865 17.4521C29.1865 17.2218 29.0935 17.0151 28.9429 16.8645ZM12.3549 23.4825C12.2043 23.3319 11.9961 23.2389 11.7673 23.2389C11.308 23.2389 10.9359 23.611 10.9359 24.0702C10.9359 24.5294 11.308 24.9015 11.7673 24.9015C12.2265 24.9015 12.5986 24.5294 12.5986 24.0702C12.5986 23.8399 12.5055 23.6331 12.3549 23.4825ZM27.5239 35.784H29.1865V21.179H27.5239V35.784ZM16.5263 35.784H18.1889V23.6066H16.5263V35.784ZM22.1166 35.784H23.7793V27.3556H22.1166V35.784ZM32.9252 35.784H34.5908V16.5839H32.9252V35.784ZM10.9345 35.784H12.5971V27.3556H10.9345V35.784Z" fill="#BEC3CB"/>
</svg>
