<svg width="43" height="44" viewBox="0 0 43 44" fill="none" xmlns="http://www.w3.org/2000/svg">
<path d="M17.3479 8.71413H20.0112M14.6846 34.6186H17.3479M24.6721 34.6186H27.3354M22.0087 8.71413H24.6721M24.3325 35.9519H17.6742C16.8519 35.9603 16.0512 35.6883 15.4038 35.1807C14.7565 34.673 14.3009 33.9599 14.1119 33.1586L13 28.2253V20.774L14.4182 10.5541C14.5226 9.85282 14.8765 9.2129 15.4149 8.75228C15.9533 8.29165 16.6398 8.04134 17.3479 8.04747H24.6721C25.3802 8.04134 26.0667 8.29165 26.6051 8.75228C27.1434 9.2129 27.4974 9.85282 27.6017 10.5541L29 20.774V28.3453L27.8947 33.1719C27.7032 33.9708 27.2465 34.6808 26.5993 35.1859C25.9522 35.6909 25.153 35.961 24.3325 35.9519Z" stroke="#BEC3CB" stroke-width="1.2" stroke-miterlimit="10"/>
<path d="M23.286 19.0474H18.714C18.3197 19.0474 18 19.3804 18 19.7911V27.256C18 27.6668 18.3197 27.9997 18.714 27.9997H23.286C23.6803 27.9997 24 27.6668 24 27.256V19.7911C24 19.3804 23.6803 19.0474 23.286 19.0474Z" stroke="#BEC3CB" stroke-width="1.2" stroke-miterlimit="10"/>
<path d="M17.7531 17.4197L13.7986 14.5399M24.2466 17.4197L28.3635 14.5399M18.0778 14.0476H23.922M18.0778 30.5348H23.922" stroke="#BEC3CB" stroke-width="1.2" stroke-miterlimit="10"/>
<path d="M13.2987 3.0474C12.4767 3.04207 11.6617 3.20495 10.9002 3.52676C10.1388 3.84857 9.44584 4.323 8.86095 4.92295C8.27606 5.52291 7.81067 6.23664 7.49137 7.02339C7.17207 7.81015 7.0051 8.65452 7 9.5083M13.2987 7.10738C12.9912 7.10202 12.6858 7.16007 12.4001 7.27816C12.1144 7.39625 11.8541 7.57204 11.6343 7.79534C11.4144 8.01864 11.2394 8.28503 11.1194 8.57906C10.9994 8.87309 10.9367 9.18894 10.9351 9.5083M28.7013 3.0474C29.5233 3.04207 30.3384 3.20495 31.0998 3.52676C31.8612 3.84857 32.5542 4.323 33.1391 4.92295C33.7239 5.52291 34.1893 6.23664 34.5086 7.02339C34.8279 7.81015 34.9949 8.65452 35 9.5083M28.7013 7.10738C29.0088 7.10202 29.3142 7.16007 29.5999 7.27816C29.8856 7.39625 30.1459 7.57204 30.3657 7.79534C30.5856 8.01864 30.7606 8.28503 30.8806 8.57906C31.0006 8.87309 31.0633 9.18894 31.0649 9.5083" stroke="#BEC3CB" stroke-width="1.2" stroke-miterlimit="10"/>
</svg>
