<svg width="34" height="34" viewBox="0 0 34 34" fill="none" xmlns="http://www.w3.org/2000/svg">
<g clip-path="url(#clip0_3513_1583)">
<path d="M0.794678 28.9531C0.500896 28.9531 0.263428 28.7157 0.263428 28.4219C0.263428 25.7853 2.40808 23.6406 5.04468 23.6406C5.33846 23.6406 5.57593 23.8781 5.57593 24.1719C5.57593 24.4657 5.33846 24.7031 5.04468 24.7031C2.99458 24.7031 1.32593 26.3718 1.32593 28.4219C1.32593 28.7157 1.08846 28.9531 0.794678 28.9531ZM23.1072 28.9537C22.8134 28.9537 22.5759 28.7162 22.5759 28.4224C22.5759 26.3723 20.9073 24.7037 18.8572 24.7037C18.5634 24.7037 18.3259 24.4662 18.3259 24.1724C18.3259 23.8786 18.5634 23.6412 18.8572 23.6412C21.4938 23.6412 23.6384 25.7858 23.6384 28.4224C23.6384 28.7162 23.401 28.9537 23.1072 28.9537Z" fill="#BEC3CB"/>
<path d="M8.23218 24.7037L5.04468 24.7032C4.7509 24.7032 4.51343 24.4652 4.51343 24.1719C4.51343 23.8781 4.75143 23.6407 5.04468 23.6407L8.23218 23.6412C8.52596 23.6412 8.76343 23.8792 8.76343 24.1724C8.76343 24.4662 8.52543 24.7037 8.23218 24.7037ZM18.8572 24.7037L15.6697 24.7026C15.3759 24.7026 15.1384 24.4646 15.1384 24.1714C15.1384 23.8776 15.3764 23.6401 15.6697 23.6401L18.8572 23.6412C19.151 23.6412 19.3884 23.8792 19.3884 24.1724C19.3884 24.4662 19.1504 24.7037 18.8572 24.7037ZM0.795209 33.2032C0.501959 33.2032 0.263959 32.9657 0.263959 32.6719L0.263428 28.4219C0.263428 28.1287 0.500896 27.8907 0.794678 27.8907C1.08793 27.8907 1.32593 28.1281 1.32593 28.4219L1.32646 32.6719C1.32646 32.9652 1.08899 33.2032 0.795209 33.2032Z" fill="#BEC3CB"/>
<path d="M8.23218 24.7038C7.9384 24.7038 7.70093 24.4663 7.70093 24.1725V21.1279C7.70093 20.8341 7.9384 20.5967 8.23218 20.5967C8.52596 20.5967 8.76343 20.8341 8.76343 21.1279V24.1725C8.76343 24.4663 8.52596 24.7038 8.23218 24.7038ZM15.6697 24.7027C15.3759 24.7027 15.1384 24.4652 15.1384 24.1715V21.1279C15.1384 20.8341 15.3759 20.5967 15.6697 20.5967C15.9635 20.5967 16.2009 20.8341 16.2009 21.1279V24.1715C16.2009 24.4652 15.9635 24.7027 15.6697 24.7027Z" fill="#BEC3CB"/>
<path d="M11.9509 22.5781C7.26424 22.5781 3.45093 18.7648 3.45093 14.0781C3.45093 13.7843 3.6884 13.5469 3.98218 13.5469C4.27596 13.5469 4.51343 13.7843 4.51343 14.0781C4.51343 18.1794 7.84968 21.5156 11.9509 21.5156C16.0522 21.5156 19.3884 18.1794 19.3884 14.0781C19.3884 13.7843 19.6259 13.5469 19.9197 13.5469C20.2135 13.5469 20.4509 13.7843 20.4509 14.0781C20.4509 18.7648 16.6376 22.5781 11.9509 22.5781Z" fill="#BEC3CB"/>
<path d="M3.98218 14.6093C3.6884 14.6093 3.45093 14.3719 3.45093 14.0781V8.2338C3.45093 7.94002 3.6884 7.70255 3.98218 7.70255C4.27596 7.70255 4.51343 7.94002 4.51343 8.2338V14.0781C4.51343 14.3719 4.27596 14.6093 3.98218 14.6093ZM19.9197 14.6093C19.6259 14.6093 19.3884 14.3719 19.3884 14.0781V7.70361C19.3884 7.40983 19.6259 7.17236 19.9197 7.17236C20.2135 7.17236 20.4509 7.40983 20.4509 7.70361V14.0781C20.4509 14.3719 20.2135 14.6093 19.9197 14.6093Z" fill="#BEC3CB"/>
<path d="M19.9197 8.23486C19.6259 8.23486 19.3884 7.99739 19.3884 7.70361C19.3884 5.94571 17.9588 4.51611 16.2009 4.51611C15.9071 4.51611 15.6697 4.27864 15.6697 3.98486C15.6697 3.69108 15.9071 3.45361 16.2009 3.45361C18.5443 3.45361 20.4509 5.36027 20.4509 7.70361C20.4509 7.99739 20.2135 8.23486 19.9197 8.23486Z" fill="#BEC3CB"/>
<path d="M16.2009 4.5162C15.9071 4.5162 15.6697 4.27873 15.6697 3.98495V1.32764C15.6697 1.03386 15.9071 0.796387 16.2009 0.796387C16.4947 0.796387 16.7322 1.03386 16.7322 1.32764V3.98495C16.7322 4.27873 16.4947 4.5162 16.2009 4.5162Z" fill="#BEC3CB"/>
<path d="M16.2009 1.85889H10.8884C10.5946 1.85889 10.3572 1.62142 10.3572 1.32764C10.3572 1.03386 10.5946 0.796387 10.8884 0.796387H16.2009C16.4947 0.796387 16.7322 1.03386 16.7322 1.32764C16.7322 1.62142 16.4947 1.85889 16.2009 1.85889Z" fill="#BEC3CB"/>
<path d="M3.98218 8.76514C3.6884 8.76514 3.45093 8.52767 3.45093 8.23389C3.45093 4.13264 6.78718 0.796387 10.8884 0.796387C11.1822 0.796387 11.4197 1.03386 11.4197 1.32764C11.4197 1.62142 11.1822 1.85889 10.8884 1.85889C7.37315 1.85889 4.51343 4.71861 4.51343 8.23389C4.51343 8.52767 4.27596 8.76514 3.98218 8.76514ZM19.9197 11.4214C19.7837 11.4214 19.6477 11.3693 19.5441 11.2657L17.4191 9.14073C17.2114 8.93301 17.2114 8.59726 17.4191 8.38954C17.6268 8.18182 17.9626 8.18182 18.1703 8.38954L20.2953 10.5145C20.503 10.7223 20.503 11.058 20.2953 11.2657C20.1917 11.3693 20.0557 11.4214 19.9197 11.4214Z" fill="#BEC3CB"/>
<path d="M11.9509 10.89C8.654 10.89 5.94728 9.28831 5.83359 9.22031C5.58231 9.06943 5.50103 8.74378 5.65137 8.49196C5.80172 8.24121 6.12631 8.15834 6.37972 8.30868C6.40522 8.32409 8.95681 9.82699 11.9504 9.82699C14.944 9.82699 17.4956 8.32409 17.5211 8.30868C17.775 8.15834 18.0991 8.24121 18.2494 8.49196C18.3998 8.74378 18.3185 9.06943 18.0672 9.22031C17.9546 9.28831 15.2479 10.89 11.9509 10.89Z" fill="#BEC3CB"/>
<path d="M3.98231 11.4213C3.84631 11.4213 3.71031 11.3692 3.60672 11.2656C3.399 11.0579 3.399 10.7222 3.60672 10.5144L5.73172 8.38943C5.93944 8.18171 6.27519 8.18171 6.4829 8.38943C6.69062 8.59715 6.69062 8.9329 6.4829 9.14062L4.3579 11.2656C4.25431 11.3692 4.11831 11.4213 3.98231 11.4213ZM8.76675 33.2036C8.61056 33.2036 8.4565 33.1356 8.35131 33.0044C8.16803 32.7749 8.20575 32.4407 8.43419 32.2574L19.0215 23.7856C19.251 23.6018 19.5846 23.64 19.7684 23.8685C19.9517 24.098 19.914 24.4321 19.6855 24.6154L9.09825 33.0872C8.99997 33.1659 8.88309 33.2036 8.76675 33.2036ZM5.04587 33.2036C4.88969 33.2036 4.73562 33.1356 4.63044 33.0044C4.44715 32.7749 4.48487 32.4407 4.71331 32.2574L15.3362 23.7574C15.5662 23.5736 15.8998 23.6119 16.0831 23.8403C16.2664 24.0698 16.2287 24.404 16.0002 24.5872L5.37737 33.0872C5.27962 33.1659 5.16222 33.2036 5.04587 33.2036Z" fill="#BEC3CB"/>
<path d="M11.9558 27.3599C9.61247 27.3599 7.70581 25.9303 7.70581 24.1724C7.70581 23.8786 7.94328 23.6411 8.23706 23.6411C8.53084 23.6411 8.76831 23.8786 8.76831 24.1724C8.76831 25.3241 10.2282 26.2974 11.9558 26.2974C12.0807 26.2974 12.205 26.2921 12.3266 26.2825C12.6273 26.2596 12.8754 26.4775 12.8988 26.7696C12.9222 27.0624 12.7043 27.3184 12.4116 27.3418C12.2618 27.3535 12.1099 27.3599 11.9558 27.3599ZM32.1428 33.2036H26.2985C25.4198 33.2036 24.7047 32.4886 24.7047 31.6099V20.9849C24.7047 20.1062 25.4198 19.3911 26.2985 19.3911H32.1428C33.0215 19.3911 33.7365 20.1062 33.7365 20.9849V31.6099C33.7365 32.4886 33.0215 33.2036 32.1428 33.2036ZM26.2985 20.4536C26.0052 20.4536 25.7672 20.6916 25.7672 20.9849V31.6099C25.7672 31.9031 26.0052 32.1411 26.2985 32.1411H32.1428C32.436 32.1411 32.674 31.9031 32.674 31.6099V20.9849C32.674 20.6916 32.436 20.4536 32.1428 20.4536H26.2985Z" fill="#BEC3CB"/>
<path d="M28.3535 27.9133H26.7598C26.466 27.9133 26.2285 27.6759 26.2285 27.3821V25.7883C26.2285 25.4945 26.466 25.2571 26.7598 25.2571H28.3535C28.6473 25.2571 28.8848 25.4945 28.8848 25.7883V27.3821C28.8848 27.6759 28.6473 27.9133 28.3535 27.9133ZM27.0285 27.1999H28.1714V25.9568H27.0285V27.1999Z" fill="#BEC3CB"/>
<path d="M30.0173 25.7651H28.4236C28.1298 25.7651 27.8923 25.5277 27.8923 25.2339V23.6401C27.8923 23.3464 28.1298 23.1089 28.4236 23.1089H30.0173C30.3111 23.1089 30.5486 23.3464 30.5486 23.6401V25.2339C30.5486 25.5277 30.3111 25.7651 30.0173 25.7651ZM28.6812 24.9949H29.7915V23.8347H28.6812V24.9949Z" fill="#BEC3CB"/>
<path d="M31.541 27.9133H29.9473C29.6535 27.9133 29.416 27.6759 29.416 27.3821V25.7883C29.416 25.4945 29.6535 25.2571 29.9473 25.2571H31.541C31.8348 25.2571 32.0723 25.4945 32.0723 25.7883V27.3821C32.0723 27.6759 31.8348 27.9133 31.541 27.9133ZM30.1674 27.1999H31.4158V25.9743H30.1674V27.1999Z" fill="#BEC3CB"/>
<path d="M32.5714 31.0859H25.7142C25.4614 31.0859 25.2571 30.8688 25.2571 30.6002C25.2571 30.3316 25.4614 30.1145 25.7142 30.1145H32.5714C32.8242 30.1145 33.0285 30.3316 33.0285 30.6002C33.0285 30.8688 32.8242 31.0859 32.5714 31.0859Z" fill="#BEC3CB"/>
</g>
<defs>
<clipPath id="clip0_3513_1583">
<rect width="34" height="34" fill="white"/>
</clipPath>
</defs>
</svg>
