<svg width="26" height="33" viewBox="0 0 26 33" fill="none" xmlns="http://www.w3.org/2000/svg">
<path d="M21.4719 5.61362C21.4719 5.91976 21.2171 6.16766 20.9024 6.16766C20.5877 6.16766 20.3329 5.91976 20.3329 5.61362V1.35931C20.3329 1.22288 20.2166 1.10975 20.0763 1.10975H1.40067C1.26044 1.10975 1.14414 1.22288 1.14414 1.35931V26.6244H20.3312V24.2846C20.3312 23.9785 20.586 23.7306 20.9007 23.7306C21.2153 23.7306 21.4702 23.9785 21.4702 24.2846V31.6407C21.4702 32.3894 20.8425 33 20.0729 33H1.39725C0.627653 33 0 32.3894 0 31.6407V1.35931C0 0.61061 0.627653 0 1.39725 0H20.0729C20.8425 0 21.4702 0.61061 21.4702 1.35931V5.61362H21.4719ZM10.1673 3.57382C9.85261 3.57382 9.59778 3.32591 9.59778 3.01977C9.59778 2.71364 9.85261 2.46573 10.1673 2.46573H11.308C11.6227 2.46573 11.8775 2.71364 11.8775 3.01977C11.8775 3.32591 11.6227 3.57382 11.308 3.57382H10.1673ZM17.7807 6.94298C22.3196 6.94298 26 10.5235 26 14.9391C26 19.3532 22.3145 22.9353 17.7807 22.9353C13.2469 22.9353 9.56132 19.3532 9.56132 14.9391C9.56132 10.5235 13.2417 6.94298 17.7807 6.94298ZM22.7865 10.0692C20.0211 7.3789 15.5386 7.3789 12.7748 10.0692C10.189 12.5849 10.0008 16.5979 12.3216 19.3266C12.8176 18.0687 13.7651 17.0189 14.9725 16.37C13.3238 14.8393 13.2828 12.2837 14.9024 10.7081C16.4911 9.16248 19.0685 9.16248 20.6573 10.7081C22.2785 12.2854 22.2375 14.8393 20.5871 16.37C21.7997 17.0205 22.7403 18.0671 23.238 19.3266C25.5588 16.5996 25.3706 12.5849 22.7848 10.0692H22.7865ZM22.3384 20.21C21.9639 18.7991 20.895 17.6295 19.5011 17.0921C18.4083 17.5879 17.1513 17.5879 16.0585 17.0921C14.6629 17.6295 13.5992 18.7941 13.2212 20.21C15.8532 22.3663 19.7047 22.3663 22.3367 20.21H22.3384ZM19.1916 16.004C20.8967 15.0906 21.2336 12.8361 19.8517 11.4901C18.7076 10.377 16.8537 10.377 15.7096 11.4901C14.3277 12.8345 14.6646 15.0906 16.3697 16.004C16.8075 16.2386 17.271 16.355 17.7807 16.355C18.2903 16.355 18.7538 16.2386 19.1916 16.004ZM9.00091 30.4727C8.68623 30.4727 8.43141 30.2248 8.43141 29.9187C8.43141 29.6125 8.68623 29.3646 9.00091 29.3646H12.471C12.7856 29.3646 13.0405 29.6125 13.0405 29.9187C13.0405 30.2248 12.7856 30.4727 12.471 30.4727H9.00091ZM1.14243 27.7341V31.6407C1.14243 31.7771 1.25873 31.8903 1.39896 31.8903H20.0746C20.2149 31.8903 20.3312 31.7771 20.3312 31.6407V27.7341H1.14414H1.14243Z" fill="#BEC3CB"/>
</svg>
