<svg width="36" height="36" viewBox="0 0 36 36" fill="none" xmlns="http://www.w3.org/2000/svg">
<path d="M12.6562 27.5625V29.1544C12.657 29.3518 12.6186 29.5474 12.5434 29.73C12.4682 29.9125 12.3576 30.0784 12.218 30.218C12.0784 30.3576 11.9125 30.4682 11.73 30.5434C11.5474 30.6187 11.3518 30.657 11.1543 30.6562H8.53309C8.33566 30.657 8.14002 30.6187 7.95747 30.5434C7.77492 30.4682 7.60906 30.3576 7.46945 30.218C7.32984 30.0784 7.21924 29.9125 7.14403 29.73C7.06882 29.5474 7.03048 29.3518 7.03122 29.1544V27.5625M18 27.2812L28.5468 27.2194C30.9712 27.2194 32.9287 25.0819 32.9287 22.4662V18.0675C32.9429 17.2404 32.7432 16.4236 32.349 15.6963C31.9548 14.9691 31.3795 14.3559 30.6787 13.9162L30.51 13.815C29.8977 13.4445 29.419 12.889 29.1431 12.2287L27.1856 7.65562C26.9144 6.97992 26.4491 6.3997 25.8484 5.98824C25.2478 5.57677 24.5386 5.3525 23.8106 5.34375H12.2118C11.4838 5.3525 10.7747 5.57677 10.174 5.98824C9.57332 6.3997 9.10802 6.97992 8.83684 7.65562L6.87934 12.2287C6.60341 12.889 6.12474 13.4445 5.51247 13.815L5.34372 13.9162C4.64298 14.3559 4.06766 14.9691 3.67347 15.6963C3.27928 16.4236 3.07958 17.2404 3.09372 18.0675V22.1625C3.09372 24.975 4.49434 27 7.35747 27L17.8931 27.2812H18Z" stroke="#C1C5CB" stroke-width="1.2" stroke-miterlimit="10"/>
<path d="M28.9688 27V29.1544C28.9695 29.3518 28.9312 29.5474 28.8559 29.73C28.7807 29.9125 28.6701 30.0784 28.5305 30.218C28.3909 30.3576 28.225 30.4682 28.0425 30.5434C27.8599 30.6187 27.6643 30.657 27.4669 30.6562H24.8456C24.6482 30.657 24.4526 30.6187 24.27 30.5434C24.0875 30.4682 23.9216 30.3576 23.782 30.218C23.6424 30.0784 23.5318 29.9125 23.4566 29.73C23.3813 29.5474 23.343 29.3518 23.3438 29.1544V27.5625M5.0625 10.4062H2.25M33.75 10.4062H30.9375M21.8531 16.6837C21.3294 16.153 20.7062 15.7308 20.0191 15.4413C19.332 15.1517 18.5946 15.0005 17.849 14.9964C17.1034 14.9922 16.3643 15.1351 15.6741 15.4169C14.9838 15.6987 14.3559 16.1139 13.8262 16.6387M24.6713 13.77C23.7924 12.8792 22.7466 12.1705 21.5936 11.6843C20.4405 11.1982 19.2029 10.9442 17.9516 10.9369C16.7003 10.9296 15.4599 11.1691 14.3012 11.6417C13.1426 12.1143 12.0885 12.8108 11.1994 13.6912" stroke="#C1C5CB" stroke-width="1.2" stroke-miterlimit="10"/>
<path d="M18.2812 21.375C19.0579 21.375 19.6875 20.7454 19.6875 19.9688C19.6875 19.1921 19.0579 18.5625 18.2812 18.5625C17.5046 18.5625 16.875 19.1921 16.875 19.9688C16.875 20.7454 17.5046 21.375 18.2812 21.375Z" fill="#C1C5CB"/>
</svg>
