<svg width="32" height="32" viewBox="0 0 32 32" fill="none" xmlns="http://www.w3.org/2000/svg">
<path d="M25.6886 15.3207L21.8621 14.0207L19.9711 10.5241C19.4594 9.58276 18.4806 9 17.435 9H10.5384C9.47056 9 8.51394 9.58276 8.00226 10.5241L5.90986 14.1776V14.2C5.88761 14.2224 5.88761 14.2448 5.88761 14.2672V19.7586C5.88761 20.0052 6.08783 20.2069 6.33255 20.2069H8.26923C8.46945 21.2379 9.38157 22 10.4494 22C11.5173 22 12.4294 21.2379 12.6296 20.2069H19.3927C19.5929 21.2379 20.505 22 21.5729 22C22.6407 22 23.5529 21.2379 23.7531 20.2069H25.5551C25.7998 20.2069 26 20.0052 26 19.7586V15.7466C26 15.5448 25.8888 15.3879 25.6886 15.3207ZM13.401 10H17.435C18.1691 10 18.8365 10.4034 19.1925 11.0534L20.7943 13.9534H13.401V10ZM8.91328 11.0534C9.26923 10.4034 9.93663 10 10.6708 10H12.4294V13.9534H7.19907L8.91328 11.0534ZM8.26953 19.2311H6.91016L6.88761 18.4362H8.64742C8.4472 18.7052 8.33627 18.8949 8.26953 19.2311ZM10.4272 21.1259C9.69303 21.1259 9.09236 20.5207 9.09236 19.781C9.09236 19.0414 9.69303 18.4362 10.4272 18.4362C11.1613 18.4362 11.762 19.0414 11.762 19.781C11.762 20.5207 11.1613 21.1259 10.4272 21.1259ZM21.5506 21.1259C20.8165 21.1259 20.2158 20.5207 20.2158 19.781C20.2158 19.0414 20.8165 18.4362 21.5506 18.4362C22.2848 18.4362 22.8855 19.0414 22.8855 19.781C22.8855 20.5207 22.2848 21.1259 21.5506 21.1259ZM24.9926 19.1945H23.7234C23.5232 18.1635 22.5679 17.5 21.5 17.5C20.5 17.5 19.5793 18.1354 19.3791 19.1664H12.616C12.4158 18.1354 11.495 17.5397 10.4272 17.5397H6.88761V15H21.4839L25 16.0603L24.9926 19.1945Z" fill="#BDC2CC"/>
<path d="M28 2.5L28.0735 7.5L23 8" stroke="#BDC2CC" stroke-width="1.3" stroke-linecap="round" stroke-linejoin="round"/>
<path d="M26.8884 6.53665C21.9676 0.283144 12.7933 -0.884178 6.53814 4.11862C0.282949 9.12143 -0.884685 18.2099 4.11947 24.4634C9.12362 30.7169 18.2145 31.8842 24.4697 26.8814C28.8066 23.4628 30.8917 17.793 29.6406 12.3732" stroke="#BDC2CC" stroke-width="1.3" stroke-linecap="round" stroke-linejoin="round"/>
</svg>
