<svg width="32" height="32" viewBox="0 0 32 32" fill="none" xmlns="http://www.w3.org/2000/svg">
<g clip-path="url(#clip0_3513_1815)">
<path d="M8.28675 14.2827C8.21671 14.2827 8.14736 14.2965 8.08265 14.3233C8.01795 14.3501 7.95915 14.3894 7.90963 14.4389C7.8601 14.4884 7.82082 14.5472 7.79402 14.6119C7.76721 14.6767 7.75342 14.746 7.75342 14.816V15.6747C7.75342 15.8162 7.80961 15.9518 7.90963 16.0518C8.00965 16.1519 8.1453 16.208 8.28675 16.208C8.4282 16.208 8.56386 16.1519 8.66387 16.0518C8.76389 15.9518 8.82008 15.8162 8.82008 15.6747V14.816C8.82008 14.6746 8.76389 14.5389 8.66387 14.4389C8.56386 14.3389 8.4282 14.2827 8.28675 14.2827Z" fill="#B0BACE"/>
<path d="M31.6093 7.28814L23.352 5.22414C23.3109 5.21459 23.2689 5.20967 23.2267 5.20947H19.0933V5.22147C19.0592 5.21817 19.0248 5.21817 18.9907 5.22147L14.6947 6.25347C14.5781 6.27765 14.4734 6.34121 14.3981 6.43347C14.3228 6.52573 14.2816 6.64107 14.2813 6.76014V7.27614H12.7387C12.6018 7.27614 12.4706 7.3305 12.3738 7.42727C12.277 7.52404 12.2227 7.65529 12.2227 7.79214V9.33347H11.2V8.22681C11.2 7.94391 11.0876 7.6726 10.8876 7.47256C10.6875 7.27252 10.4162 7.16014 10.1333 7.16014H3.54667C3.34096 7.15814 3.13916 7.21641 2.96619 7.32778C2.79323 7.43914 2.65665 7.59872 2.57333 7.78681L0.0933333 13.2441C0.0342665 13.3835 0.00257855 13.5328 0 13.6841L0 21.8308C0 22.1137 0.112381 22.385 0.312419 22.5851C0.512458 22.7851 0.783769 22.8975 1.06667 22.8975H2.08C2.02635 23.1292 1.9995 23.3663 2 23.6041C2 24.4493 2.33574 25.2598 2.93335 25.8575C3.53097 26.4551 4.34151 26.7908 5.18667 26.7908C6.03182 26.7908 6.84236 26.4551 7.43998 25.8575C8.0376 25.2598 8.37333 24.4493 8.37333 23.6041C8.37383 23.3663 8.34698 23.1292 8.29333 22.8975H16.6013C16.5477 23.1292 16.5208 23.3663 16.5213 23.6041C16.5213 24.4475 16.8564 25.2564 17.4527 25.8527C18.0491 26.4491 18.8579 26.7841 19.7013 26.7841C20.5447 26.7841 21.3536 26.4491 21.9499 25.8527C22.5463 25.2564 22.8813 24.4475 22.8813 23.6041C22.8808 23.3666 22.8531 23.13 22.7987 22.8988H22.9613C22.9077 23.1305 22.8808 23.3676 22.8813 23.6055C22.8813 24.4489 23.2164 25.2577 23.8127 25.8541C24.4091 26.4504 25.2179 26.7855 26.0613 26.7855C26.9047 26.7855 27.7136 26.4504 28.3099 25.8541C28.9063 25.2577 29.2413 24.4489 29.2413 23.6055C29.2418 23.3676 29.215 23.1305 29.1613 22.8988H30.068C30.3509 22.8988 30.6222 22.7864 30.8222 22.5864C31.0223 22.3863 31.1347 22.115 31.1347 21.8321V19.6988C31.1347 19.5587 31.1071 19.42 31.0535 19.2906C30.9999 19.1612 30.9213 19.0436 30.8222 18.9446C30.7232 18.8455 30.6056 18.7669 30.4762 18.7133C30.3468 18.6597 30.2081 18.6321 30.068 18.6321H11.2V13.4668H12.2227V15.0135C12.2227 15.1503 12.277 15.2816 12.3738 15.3783C12.4706 15.4751 12.6018 15.5295 12.7387 15.5295H14.2867V16.0455C14.2869 16.1645 14.3282 16.2799 14.4034 16.3721C14.4787 16.4644 14.5834 16.528 14.7 16.5521L18.996 17.5841C19.0298 17.5911 19.0642 17.5946 19.0987 17.5948H23.232C23.2743 17.5948 23.3164 17.5894 23.3573 17.5788L31.6147 15.5148C31.7254 15.4858 31.8234 15.4208 31.8931 15.3301C31.9629 15.2393 32.0005 15.1279 32 15.0135V7.78947C32.0002 7.67429 31.9618 7.56237 31.891 7.47152C31.8202 7.38067 31.7211 7.31612 31.6093 7.28814ZM3.54667 8.23081H10.1333V18.6308H1.06667V15.6748H2.04267C2.18412 15.6748 2.31977 15.6186 2.41979 15.5186C2.51981 15.4186 2.576 15.2829 2.576 15.1415C2.576 15 2.51981 14.8644 2.41979 14.7643C2.31977 14.6643 2.18412 14.6081 2.04267 14.6081H1.06667V13.6855L3.54667 8.23081ZM5.18667 25.7241C4.89047 25.7253 4.59735 25.6641 4.3263 25.5447C4.05526 25.4253 3.81235 25.2502 3.61333 25.0308C3.26194 24.637 3.06741 24.1279 3.06667 23.6001C3.06188 23.3579 3.10728 23.1173 3.2 22.8935C3.34572 22.4462 3.64898 22.0672 4.05333 21.8268C4.43188 21.5825 4.87938 21.4673 5.32884 21.4985C5.77831 21.5298 6.20557 21.7058 6.54667 22.0001C6.82764 22.2153 7.04059 22.507 7.16 22.8401V22.8535C7.25716 23.0904 7.30699 23.3441 7.30667 23.6001C7.30631 24.1627 7.08297 24.7021 6.68559 25.1002C6.2882 25.4984 5.74918 25.7227 5.18667 25.7241ZM19.6947 25.7241C19.1343 25.722 18.5977 25.4976 18.2027 25.1001C17.8077 24.7026 17.5866 24.1645 17.588 23.6041C17.5863 23.5505 17.5908 23.4968 17.6013 23.4441C17.6143 23.257 17.6547 23.0728 17.7213 22.8975C17.8637 22.4518 18.1683 22.0759 18.5747 21.8441C18.588 21.8441 18.588 21.8308 18.6013 21.8308C18.8235 21.6846 19.073 21.5848 19.3347 21.5375C19.4541 21.522 19.5743 21.5131 19.6947 21.5108H19.7347C20.1136 21.5125 20.484 21.6236 20.8013 21.8308C20.8147 21.8308 20.8147 21.8441 20.828 21.8441C21.0425 21.9632 21.2289 22.1269 21.3747 22.3241C21.5103 22.4954 21.6142 22.6896 21.6813 22.8975C21.737 23.0394 21.7773 23.1869 21.8013 23.3375C21.8124 23.4259 21.8169 23.515 21.8147 23.6041C21.815 23.8826 21.7604 24.1585 21.654 24.4158C21.5476 24.6732 21.3914 24.9071 21.1945 25.104C20.9976 25.3009 20.7637 25.4571 20.5064 25.5635C20.249 25.6699 19.9732 25.7245 19.6947 25.7241ZM28.1747 23.6041C28.1747 24.1646 27.952 24.7022 27.5557 25.0985C27.1594 25.4948 26.6218 25.7175 26.0613 25.7175C25.5008 25.7175 24.9633 25.4948 24.567 25.0985C24.1707 24.7022 23.948 24.1646 23.948 23.6041C23.9463 23.5505 23.9508 23.4968 23.9613 23.4441C23.9743 23.257 24.0147 23.0728 24.0813 22.8975C24.1748 22.6078 24.3399 22.3464 24.5613 22.1375C24.6703 22.0214 24.7961 21.9225 24.9347 21.8441C24.948 21.8441 24.948 21.8308 24.9613 21.8308C25.1835 21.6846 25.433 21.5848 25.6947 21.5375C25.8141 21.522 25.9343 21.5131 26.0547 21.5108C26.447 21.506 26.8321 21.6173 27.1613 21.8308C27.1747 21.8308 27.1747 21.8441 27.188 21.8441C27.5944 22.0759 27.8989 22.4518 28.0413 22.8975C28.1323 23.1204 28.1776 23.3594 28.1747 23.6001V23.6041ZM30.068 19.6975V21.8308H28.6813C28.4095 21.4262 28.048 21.0898 27.6248 20.848C27.2016 20.6061 26.7282 20.4653 26.2417 20.4365C25.7551 20.4078 25.2685 20.4918 24.8197 20.6821C24.371 20.8723 23.9722 21.1637 23.6547 21.5335C23.5817 21.6291 23.5136 21.7283 23.4507 21.8308H22.3213C22.2163 21.6684 22.0957 21.5166 21.9613 21.3775C21.6673 21.0745 21.3148 20.8343 20.9251 20.6716C20.5355 20.5088 20.1169 20.4269 19.6947 20.4308C19.2729 20.43 18.8552 20.5133 18.466 20.6758C18.0768 20.8384 17.7239 21.0769 17.428 21.3775C17.3017 21.5207 17.185 21.6722 17.0787 21.8308H7.82667C7.53635 21.3967 7.14367 21.0407 6.68327 20.7943C6.22287 20.5478 5.70889 20.4184 5.18667 20.4175C4.60294 20.4167 4.03049 20.5782 3.53333 20.8841H3.52C3.13777 21.1241 2.81061 21.4421 2.56 21.8175V21.8308H1.06667V19.6975H30.068ZM12.2227 12.4335H11.2V10.3695H12.2227V12.4335ZM14.2867 14.4975H13.2547V8.30547H14.2867V14.4975ZM18.5827 16.4481L15.32 15.6228V7.18014L18.5827 6.35481V16.4481ZM22.716 16.5628H19.6147V6.24147H22.7107L22.716 16.5628ZM30.9733 14.6108L23.748 16.4175V6.38547L30.9733 8.19214V14.6108Z" fill="#B0BACE"/>
<path d="M3.2907 13.4988C3.39051 13.5418 3.49803 13.5641 3.6067 13.5642H8.2667C8.47888 13.5642 8.68236 13.4799 8.83239 13.3298C8.98242 13.1798 9.0667 12.9763 9.0667 12.7642V9.56416C9.0667 9.35199 8.98242 9.1485 8.83239 8.99847C8.68236 8.84845 8.47888 8.76416 8.2667 8.76416H4.97737C4.82064 8.76407 4.66733 8.81001 4.53648 8.8963C4.40564 8.98258 4.30302 9.10539 4.24137 9.24949L2.8707 12.4495C2.78746 12.6444 2.78494 12.8643 2.86368 13.061C2.94242 13.2578 3.096 13.4152 3.2907 13.4988ZM5.15737 9.83083H8.00004V12.4975H4.01204L5.15737 9.83083ZM5.3867 22.7108C5.32004 22.7108 5.25337 22.6975 5.1867 22.6975C4.98165 22.6921 4.78197 22.7634 4.6267 22.8975C4.51756 22.9799 4.42932 23.0867 4.3691 23.2095C4.30888 23.3322 4.27837 23.4674 4.28004 23.6042C4.28173 23.7745 4.33138 23.9409 4.4233 24.0844C4.51523 24.2278 4.6457 24.3424 4.79977 24.4151C4.95384 24.4878 5.12527 24.5156 5.29442 24.4954C5.46357 24.4751 5.62359 24.4076 5.75615 24.3006C5.88871 24.1936 5.98844 24.0514 6.04391 23.8904C6.09939 23.7293 6.10835 23.5559 6.06979 23.3899C6.03123 23.224 5.9467 23.0723 5.82589 22.9522C5.70507 22.8321 5.55286 22.7484 5.3867 22.7108ZM19.6947 22.6975C19.4907 22.6984 19.2931 22.7689 19.1347 22.8975C19.0256 22.9799 18.9373 23.0867 18.8771 23.2095C18.8169 23.3322 18.7864 23.4674 18.788 23.6042C18.7868 23.7242 18.8093 23.8433 18.8543 23.9546C18.8992 24.0659 18.9658 24.1672 19.05 24.2527C19.1343 24.3382 19.2346 24.4062 19.3453 24.4528C19.4559 24.4994 19.5747 24.5236 19.6947 24.5242C19.9386 24.5238 20.1724 24.4268 20.3449 24.2543C20.5173 24.0819 20.6144 23.848 20.6147 23.6042C20.6164 23.4674 20.5859 23.3322 20.5256 23.2095C20.4654 23.0867 20.3772 22.9799 20.268 22.8975C20.1035 22.7708 19.9024 22.7007 19.6947 22.6975ZM26.0547 22.6975C25.8507 22.6984 25.6531 22.7689 25.4947 22.8975C25.3856 22.9799 25.2973 23.0867 25.2371 23.2095C25.1769 23.3322 25.1464 23.4674 25.148 23.6042C25.1468 23.7242 25.1693 23.8433 25.2143 23.9546C25.2592 24.0659 25.3258 24.1672 25.41 24.2527C25.4943 24.3382 25.5946 24.4062 25.7053 24.4528C25.8159 24.4994 25.9347 24.5236 26.0547 24.5242C26.2986 24.5238 26.5324 24.4268 26.7049 24.2543C26.8773 24.0819 26.9744 23.848 26.9747 23.6042C26.9764 23.4674 26.9459 23.3322 26.8856 23.2095C26.8254 23.0867 26.7372 22.9799 26.628 22.8975C26.4635 22.7708 26.2624 22.7007 26.0547 22.6975Z" fill="#B0BACE"/>
</g>
<defs>
<clipPath id="clip0_3513_1815">
<rect width="32" height="32" fill="white"/>
</clipPath>
</defs>
</svg>
