<svg width="31" height="31" viewBox="0 0 31 31" fill="none" xmlns="http://www.w3.org/2000/svg">
<path d="M29.2146 17.1033L24.7302 11.6686C24.5941 11.5032 24.423 11.37 24.2291 11.2787C24.0353 11.1874 23.8237 11.1402 23.6094 11.1406H20.3438V2.90625C20.3434 2.52098 20.1901 2.15159 19.9177 1.87916C19.6453 1.60673 19.2759 1.45351 18.8906 1.45312H2.90625C2.52098 1.45351 2.15159 1.60673 1.87916 1.87916C1.60673 2.15159 1.45351 2.52098 1.45312 2.90625V25.1875C1.45351 25.5728 1.60673 25.9422 1.87916 26.2146C2.15159 26.487 2.52098 26.6402 2.90625 26.6406H4.39812C4.5132 27.4476 4.91556 28.186 5.5313 28.7202C6.14705 29.2544 6.93484 29.5484 7.75 29.5484C8.56516 29.5484 9.35295 29.2544 9.9687 28.7202C10.5844 28.186 10.9868 27.4476 11.1019 26.6406H19.8981C20.0132 27.4476 20.4156 28.186 21.0313 28.7202C21.647 29.2544 22.4348 29.5484 23.25 29.5484C24.0652 29.5484 24.853 29.2544 25.4687 28.7202C26.0844 28.186 26.4868 27.4476 26.6019 26.6406H28.0938C28.479 26.6402 28.8484 26.487 29.1208 26.2146C29.3933 25.9422 29.5465 25.5728 29.5469 25.1875V18.028C29.5466 17.6904 29.4292 17.3634 29.2146 17.1028V17.1033ZM8.74733 2.42187H13.0495V8.10602L11.2491 6.2155C11.1557 6.12321 11.0297 6.07145 10.8984 6.07145C10.7671 6.07145 10.6411 6.12321 10.5477 6.2155L8.74733 8.10602V2.42187ZM2.42188 2.90625C2.422 2.77782 2.47308 2.6547 2.56389 2.56389C2.6547 2.47308 2.77783 2.422 2.90625 2.42187H7.77858V9.31695C7.77856 9.41376 7.80755 9.50835 7.8618 9.58852C7.91606 9.6687 7.9931 9.73077 8.08297 9.76674C8.17285 9.80272 8.27144 9.81093 8.36603 9.79033C8.46062 9.76973 8.54686 9.72126 8.61364 9.65117L10.8984 7.25206L13.1832 9.65117C13.25 9.72126 13.3363 9.76973 13.4308 9.79033C13.5254 9.81093 13.624 9.80272 13.7139 9.76674C13.8038 9.73077 13.8808 9.6687 13.9351 9.58852C13.9893 9.50835 14.0183 9.41376 14.0183 9.31695V2.42187H18.8906C19.0191 2.422 19.1422 2.47308 19.233 2.56389C19.3238 2.6547 19.3749 2.77782 19.375 2.90625V20.3437C19.3749 20.4722 19.3238 20.5953 19.233 20.6861C19.1422 20.7769 19.0191 20.828 18.8906 20.8281H2.90625C2.77783 20.828 2.6547 20.7769 2.56389 20.6861C2.47308 20.5953 2.422 20.4722 2.42188 20.3437V2.90625ZM7.75 28.5781C7.271 28.5781 6.80275 28.4361 6.40448 28.17C6.0062 27.9038 5.69579 27.5256 5.51248 27.0831C5.32917 26.6405 5.28121 26.1536 5.37466 25.6838C5.46811 25.214 5.69877 24.7824 6.03748 24.4437C6.37618 24.105 6.80772 23.8744 7.27752 23.7809C7.74731 23.6875 8.23427 23.7354 8.67681 23.9187C9.11935 24.102 9.4976 24.4125 9.76372 24.8107C10.0298 25.209 10.1719 25.6772 10.1719 26.1562C10.1711 26.7983 9.9157 27.4139 9.46168 27.8679C9.00765 28.3219 8.39209 28.5774 7.75 28.5781ZM23.25 28.5781C22.771 28.5781 22.3028 28.4361 21.9045 28.17C21.5062 27.9038 21.1958 27.5256 21.0125 27.0831C20.8292 26.6405 20.7812 26.1536 20.8747 25.6838C20.9681 25.214 21.1988 24.7824 21.5375 24.4437C21.8762 24.105 22.3077 23.8744 22.7775 23.7809C23.2473 23.6875 23.7343 23.7354 24.1768 23.9187C24.6194 24.102 24.9976 24.4125 25.2637 24.8107C25.5298 25.209 25.6719 25.6772 25.6719 26.1562C25.6711 26.7983 25.4157 27.4139 24.9617 27.8679C24.5077 28.3219 23.8921 28.5774 23.25 28.5781ZM28.5781 25.1875C28.5781 25.316 28.5271 25.4392 28.4363 25.53C28.3454 25.6208 28.2222 25.6719 28.0938 25.6719H26.6019C26.4868 24.8649 26.0844 24.1265 25.4687 23.5923C24.853 23.0581 24.0652 22.7641 23.25 22.7641C22.4348 22.7641 21.647 23.0581 21.0313 23.5923C20.4156 24.1265 20.0132 24.8649 19.8981 25.6719H11.1019C10.9868 24.8649 10.5844 24.1265 9.9687 23.5923C9.35295 23.0581 8.56516 22.7641 7.75 22.7641C6.93484 22.7641 6.14705 23.0581 5.5313 23.5923C4.91556 24.1265 4.5132 24.8649 4.39812 25.6719H2.90625C2.77779 25.6719 2.65458 25.6208 2.56375 25.53C2.47291 25.4392 2.42188 25.316 2.42188 25.1875V22.2812C2.42188 22.1528 2.47291 22.0296 2.56375 21.9387C2.65458 21.8479 2.77779 21.7969 2.90625 21.7969H18.8906C19.276 21.7969 19.6456 21.6438 19.9181 21.3713C20.1907 21.0987 20.3438 20.7291 20.3438 20.3437V12.1094H23.6084C23.68 12.1093 23.7507 12.125 23.8154 12.1555C23.8802 12.186 23.9373 12.2305 23.9829 12.2857L28.4672 17.7194C28.5389 17.8062 28.5781 17.9153 28.5781 18.028V25.1875ZM14.7449 17.0955C14.7449 16.9671 14.7959 16.8439 14.8867 16.753C14.9776 16.6622 15.1008 16.6112 15.2292 16.6112H17.3377C17.4662 16.6112 17.5894 16.6622 17.6802 16.753C17.7711 16.8439 17.8221 16.9671 17.8221 17.0955C17.8221 17.224 17.7711 17.3472 17.6802 17.438C17.5894 17.5289 17.4662 17.5799 17.3377 17.5799H15.2288C15.1003 17.5799 14.9771 17.5289 14.8862 17.438C14.7954 17.3472 14.7449 17.224 14.7449 17.0955ZM14.7449 18.677C14.7449 18.5485 14.7959 18.4253 14.8867 18.3345C14.9776 18.2437 15.1008 18.1926 15.2292 18.1926H17.3377C17.4662 18.1926 17.5894 18.2437 17.6802 18.3345C17.7711 18.4253 17.8221 18.5485 17.8221 18.677C17.8221 18.8055 17.7711 18.9287 17.6802 19.0195C17.5894 19.1104 17.4662 19.1614 17.3377 19.1614H15.2288C15.1003 19.1614 14.9771 19.1104 14.8862 19.0195C14.7954 18.9287 14.7449 18.8055 14.7449 18.677ZM23.1483 13.2651C23.103 13.2068 23.0449 13.1597 22.9786 13.1273C22.9123 13.0949 22.8394 13.0781 22.7656 13.0781H21.3125C21.184 13.0781 21.0608 13.1292 20.97 13.22C20.8792 13.3108 20.8281 13.434 20.8281 13.5625V17.9219C20.8281 18.0503 20.8792 18.1735 20.97 18.2644C21.0608 18.3552 21.184 18.4062 21.3125 18.4062H26.1562C26.247 18.4063 26.3359 18.3809 26.4128 18.3329C26.4898 18.2849 26.5518 18.2163 26.5916 18.1348C26.6315 18.0533 26.6477 17.9623 26.6384 17.8721C26.6291 17.7819 26.5946 17.6961 26.5389 17.6245L23.1483 13.2651ZM21.7969 17.4375V14.0469H22.5283L25.1662 17.4375H21.7969Z" fill="#BCC1CC"/>
</svg>
