<svg width="36" height="36" viewBox="0 0 36 36" fill="none" xmlns="http://www.w3.org/2000/svg">
<path d="M8.50792 14.6436L7.24731 18.6705" stroke="#BDC2CC" stroke-width="1.1" stroke-miterlimit="10" stroke-linecap="round" stroke-linejoin="round"/>
<path d="M28.8526 18.7057L27.557 14.7838C27.2419 13.8384 26.6466 12.963 25.7711 12.3327C24.8957 11.7024 23.8802 11.3872 22.8648 11.3872H19.6782" stroke="#BDC2CC" stroke-width="1.1" stroke-miterlimit="10" stroke-linecap="round" stroke-linejoin="round"/>
<path d="M9.48857 28.9307V30.1563C9.48857 30.5064 9.17342 30.8566 8.82325 30.8566H6.09194C5.74177 30.8566 5.3916 30.5064 5.3916 30.1563V28.9307M30.7087 28.9307V30.1563C30.7087 30.5064 30.3936 30.8566 30.0084 30.8566H27.2771C26.9269 30.8566 26.6118 30.5064 26.6118 30.1563V28.9307" stroke="#BDC2CC" stroke-width="1.1" stroke-miterlimit="10" stroke-linecap="round" stroke-linejoin="round"/>
<path d="M28.6777 18.4957H30.5336C30.9187 18.4957 31.3039 18.3206 31.6191 18.0405C31.9342 17.7253 32.0743 17.3401 32.0743 16.9549V17.025C32.0743 16.7799 32.0043 16.6048 31.8292 16.4297C31.6541 16.2546 31.409 16.1846 31.1989 16.1846H29.5881M7.31742 18.4957H5.53157C5.14638 18.4957 4.72618 18.3206 4.41103 18.0405C4.09588 17.7253 3.95581 17.3401 3.95581 16.9549V17.025C3.95581 16.7799 4.06086 16.6048 4.23595 16.4297C4.41103 16.2546 4.65615 16.1846 4.90126 16.1846H6.51204" stroke="#BDC2CC" stroke-width="1.1" stroke-miterlimit="10" stroke-linecap="round" stroke-linejoin="round"/>
<path d="M24.7557 17.8655C24.7557 16.6749 23.8103 15.7295 22.6197 15.7295C21.4291 15.7295 20.4837 16.6749 20.4837 17.8655M31.7941 28.0904V23.6433C31.7941 23.118 31.7241 22.5928 31.549 22.1026C31.3739 21.5773 31.0938 21.1221 30.7786 20.7369L28.9577 18.6009H7.17729L5.35641 20.7369C5.04126 21.1221 4.76113 21.5773 4.58604 22.1026C4.41096 22.6278 4.30591 23.1531 4.30591 23.6433V28.0904H31.7941Z" stroke="#BDC2CC" stroke-width="1.1" stroke-miterlimit="10" stroke-linecap="round" stroke-linejoin="round"/>
<path d="M16.6059 13.6521C18.493 11.765 18.493 8.70531 16.6058 6.81821C14.7186 4.9311 11.659 4.93116 9.77189 6.81833C7.88478 8.7055 7.88483 11.7652 9.77201 13.6523C11.6592 15.5394 14.7188 15.5393 16.6059 13.6521Z" stroke="#BDC2CC" stroke-width="1.1" stroke-miterlimit="10" stroke-linecap="round" stroke-linejoin="round"/>
<path d="M14.1807 8.58618C13.5504 7.64073 12.4299 7.7808 12.0797 8.44612C11.7996 9.00638 11.9046 9.77675 13.3403 10.267C14.4959 10.5471 14.776 11.1074 14.706 11.6677C14.5659 12.5781 13.0252 12.9983 11.8696 11.8077" stroke="#BDC2CC" stroke-width="1.1" stroke-miterlimit="10" stroke-linecap="round" stroke-linejoin="round"/>
<path d="M12.9551 6.9751V7.43032" stroke="#BDC2CC" stroke-width="1.1" stroke-miterlimit="10" stroke-linecap="round" stroke-linejoin="round"/>
<path d="M12.9551 12.8589V13.4542" stroke="#BDC2CC" stroke-width="1.1" stroke-miterlimit="10" stroke-linecap="round" stroke-linejoin="round"/>
<path d="M6.72217 23.0483H8.54304C8.92823 23.0483 9.34843 23.2234 9.62856 23.5036C9.94371 23.8187 10.0838 24.2039 10.0838 24.6241V24.5541C10.0838 24.7992 9.97873 25.0093 9.80365 25.1844C9.62856 25.3594 9.38345 25.4295 9.13833 25.4295H6.23193M29.343 23.0483H27.5221C27.137 23.0483 26.7168 23.2234 26.4366 23.5036C26.1215 23.8187 25.9814 24.2039 25.9814 24.6241V24.5541C25.9814 24.7992 26.0865 25.0093 26.2615 25.1844C26.4366 25.3594 26.6817 25.4295 26.9269 25.4295H29.8333" stroke="#BDC2CC" stroke-width="1.1" stroke-miterlimit="10" stroke-linecap="round" stroke-linejoin="round"/>
<path d="M12.9551 24.8696H23.145" stroke="#BDC2CC" stroke-width="1.1" stroke-miterlimit="10" stroke-linecap="round" stroke-linejoin="round"/>
</svg>
