<svg width="28" height="28" viewBox="0 0 28 28" fill="none" xmlns="http://www.w3.org/2000/svg">
<path d="M23.1539 26.9232H1.61548V25.2965C1.61591 24.8713 1.78497 24.4636 2.08558 24.1629C2.3862 23.8622 2.79381 23.693 3.21902 23.6924H21.5499C21.9752 23.6928 22.3829 23.8619 22.6836 24.1627C22.9844 24.4634 23.1535 24.8712 23.1539 25.2965V26.9232ZM2.6924 25.8462H22.077V25.2965C22.0769 25.1567 22.0213 25.0227 21.9225 24.9239C21.8236 24.825 21.6896 24.7694 21.5499 24.7693H3.21902C3.07934 24.7696 2.94548 24.8252 2.84677 24.9241C2.74805 25.0229 2.69254 25.1568 2.6924 25.2965V25.8462Z" fill="#B9BFCC"/>
<path d="M20.4615 24.7695H4.30762V4.84638C4.30762 3.95576 5.03239 3.23099 5.923 3.23099H18.8461C19.7367 3.23099 20.4615 3.95576 20.4615 4.84638V24.7695ZM5.38454 23.6925H19.3845V4.84638C19.3845 4.54915 19.1428 4.30792 18.8461 4.30792H5.923C5.62631 4.30792 5.38454 4.54915 5.38454 4.84638V23.6925ZM18.3076 2.15407H6.46146C6.31865 2.15407 6.18169 2.09734 6.08071 1.99636C5.97973 1.89538 5.923 1.75842 5.923 1.61561C5.923 1.4728 5.97973 1.33584 6.08071 1.23486C6.18169 1.13388 6.31865 1.07715 6.46146 1.07715H18.3076C18.4504 1.07715 18.5874 1.13388 18.6884 1.23486C18.7893 1.33584 18.8461 1.4728 18.8461 1.61561C18.8461 1.75842 18.7893 1.89538 18.6884 1.99636C18.5874 2.09734 18.4504 2.15407 18.3076 2.15407Z" fill="#B9BFCC"/>
<path d="M18.3076 12.9231H6.46143V5.38466H18.3076V12.9231ZM7.53835 11.8462H17.2307V6.46158H7.53835V11.8462ZM23.5829 22.7554C22.8425 22.7554 22.2669 22.154 22.0423 21.8788C21.4323 21.1314 21.4597 20.3566 21.505 19.0724C21.5211 18.6125 21.5405 18.0654 21.5383 17.3988C21.5308 15.1938 21.2982 14.6349 21.0807 14.2833C20.8007 13.8326 20.3936 13.4519 19.8702 13.1525L20.4049 12.2177C21.085 12.607 21.6202 13.1116 21.996 13.7163C22.3821 14.3398 22.6072 15.1416 22.6153 17.395C22.6174 18.0789 22.598 18.6389 22.5814 19.11C22.5367 20.3668 22.5383 20.7841 22.8764 21.1977C23.1306 21.5089 23.4251 21.7022 23.6211 21.6758C23.8354 21.6467 24.0293 21.3463 24.0933 21.2477C24.5877 20.4799 24.5548 19.0923 23.9948 17.1215C23.4822 15.3128 22.5415 11.9964 22.394 10.0677C22.1964 7.49381 23.2157 4.77458 25.4239 1.98535L26.2682 2.65466C24.2339 5.22366 23.2916 7.69035 23.4677 9.98581C23.6077 11.8069 24.5284 15.0554 25.0238 16.8006C25.2726 17.6783 26.007 20.2656 24.999 21.8304C24.8682 22.0334 24.4713 22.6483 23.7638 22.743C23.7038 22.751 23.6434 22.7552 23.5829 22.7554Z" fill="#B9BFCC"/>
<path d="M26.3847 10.0955L23.0059 10.0847L23.0091 9.00782L25.3078 9.01536V6.13621L24.2206 4.9769L25.0068 4.23975L26.3847 5.70975V10.0955Z" fill="#B9BFCC"/>
</svg>
