<svg width="34" height="35" viewBox="0 0 34 35" fill="none" xmlns="http://www.w3.org/2000/svg">
<path fill-rule="evenodd" clip-rule="evenodd" d="M15.0304 9.63965C14.1215 9.6395 13.2313 9.90624 12.4645 10.4085C12.4388 10.4257 12.4146 10.4451 12.3922 10.4664L8.09551 14.505C7.86265 14.658 7.60791 14.7724 7.34058 14.844L3.07602 15.9395C2.50104 16.0886 1.99088 16.4311 1.62643 16.9126C1.26199 17.3941 1.06412 17.9871 1.06421 18.5975V20.2344C1.06421 21.7391 2.26085 22.9708 3.72253 22.9708H5.3127V21.8755H3.72253C3.51288 21.8766 3.3051 21.8348 3.1112 21.7527C2.91731 21.6706 2.74114 21.5498 2.59289 21.3972C2.44465 21.2446 2.32726 21.0632 2.24752 20.8636C2.16778 20.664 2.12728 20.4502 2.12834 20.2344V18.5975C2.12834 17.841 2.62226 17.1878 3.33302 17.0059L7.59757 15.9064C7.98452 15.8066 8.35332 15.6433 8.68981 15.4228C8.71686 15.4058 8.74239 15.3864 8.76611 15.3649L13.0548 11.3263C13.6461 10.9417 14.3309 10.7368 15.0304 10.7351H23.4391C23.9049 10.7351 24.3466 10.9419 24.6478 11.3098C24.6464 11.3098 24.6491 11.3098 24.6478 11.3098L27.6434 14.8398C28.1494 15.4433 28.8882 15.7906 29.6632 15.7906L31.3418 15.7948C31.4117 15.7937 31.4811 15.807 31.5459 15.834C31.6107 15.861 31.6695 15.9012 31.719 15.9521C31.7684 16.003 31.8074 16.0636 31.8337 16.1303C31.8599 16.197 31.8729 16.2684 31.8718 16.3404V19.1431C31.8723 19.5015 31.8042 19.8565 31.6712 20.1877C31.5381 20.519 31.3429 20.82 31.0967 21.0734C30.8505 21.3269 30.5582 21.5278 30.2364 21.6647C29.9146 21.8016 29.5697 21.8719 29.2215 21.8713H27.6233V22.9708H29.2175C31.2655 22.9708 32.9359 21.2512 32.9359 19.1431V16.3404C32.9328 15.9061 32.7638 15.4906 32.4655 15.1836C32.1672 14.8765 31.7636 14.7025 31.3418 14.6993H29.6632C29.4327 14.6997 29.2049 14.6486 28.9955 14.5494C28.7861 14.4502 28.6001 14.3053 28.4505 14.1248C28.4505 14.1234 28.4505 14.122 28.4505 14.1206L25.4589 10.5946C25.2091 10.2948 24.8993 10.0543 24.5506 9.88943C24.2019 9.7246 23.8227 9.63934 23.4391 9.63965H15.0304ZM10.6253 21.8755V22.9708H22.3107V21.8755H10.6253Z" fill="#BDC2CC"/>
<path d="M24.9688 19.1431C24.1246 19.1452 23.3154 19.4912 22.7181 20.1053C22.1207 20.7195 21.7836 21.552 21.7805 22.4211C21.7805 24.2275 23.214 25.7033 24.9688 25.7033C25.8131 25.7 26.6218 25.353 27.2184 24.7381C27.815 24.1232 28.1511 23.2902 28.1532 22.4211C28.15 21.5527 27.8135 20.7208 27.217 20.1067C26.6205 19.4927 25.8124 19.1463 24.9688 19.1431ZM24.9688 20.2344C26.1454 20.2344 27.0931 21.2058 27.0931 22.4252C27.0931 23.6364 26.1454 24.6078 24.9648 24.6078C24.6859 24.6083 24.4096 24.5521 24.1519 24.4424C23.8941 24.3326 23.66 24.1715 23.463 23.9683C23.2659 23.7651 23.1099 23.5237 23.0037 23.2582C22.8976 22.9927 22.8435 22.7082 22.8446 22.4211C22.8446 21.2058 23.7883 20.2344 24.9688 20.2344ZM7.96683 19.1431C7.12326 19.1463 6.31515 19.4927 5.71865 20.1067C5.12216 20.7208 4.78564 21.5527 4.78247 22.4211C4.78247 24.2275 6.21604 25.7033 7.96683 25.7033C8.81179 25.7011 9.62154 25.3545 10.219 24.7395C10.8165 24.1244 11.1531 23.2909 11.1552 22.4211C11.152 21.552 10.815 20.7195 10.2176 20.1053C9.62024 19.4912 8.8111 19.1452 7.96683 19.1431ZM7.96683 20.2344C9.14742 20.2344 10.0951 21.2058 10.0951 22.4252C10.0951 23.6364 9.14742 24.6078 7.96683 24.6078C7.68758 24.6089 7.41087 24.553 7.15266 24.4435C6.89446 24.334 6.65986 24.173 6.4624 23.9697C6.26493 23.7664 6.1085 23.525 6.00212 23.2592C5.89575 22.9934 5.84152 22.7086 5.84259 22.4211C5.84259 21.2058 6.79027 20.2344 7.97085 20.2344H7.96683Z" fill="#BDC2CC"/>
<path fill-rule="evenodd" clip-rule="evenodd" d="M1.59424 18.5934V19.6887H3.18843V18.5934H1.59424ZM29.7475 16.4067V17.502H30.8117V16.4067H29.7475ZM18.0622 11.4876V14.7656H19.1263V11.4834L18.0622 11.4876Z" fill="#BDC2CC"/>
<path fill-rule="evenodd" clip-rule="evenodd" d="M8.50098 14.2197V15.3111H28.1573V14.2197H8.50098Z" fill="#BDC2CC"/>
</svg>
