<svg width="35" height="35" viewBox="0 0 35 35" fill="none" xmlns="http://www.w3.org/2000/svg">
<path d="M31.4541 22.2168L28.3281 21.9144L27.6062 19.0406C27.3413 17.9752 26.7271 17.0292 25.8618 16.3535C24.9965 15.6778 23.9299 15.3113 22.832 15.3125H17.6367C16.5389 15.3112 15.4723 15.6777 14.6071 16.3534C13.7418 17.0291 13.1278 17.9751 12.863 19.0406L12.1275 21.9707L10.2577 22.4383C10.1395 22.4679 10.0345 22.5362 9.9595 22.6323C9.88449 22.7284 9.84375 22.8468 9.84375 22.9688V27.8906C9.84375 28.0357 9.90137 28.1748 10.0039 28.2773C10.1065 28.3799 10.2456 28.4375 10.3906 28.4375H12.6328C12.7583 29.0556 13.0937 29.6114 13.582 30.0105C14.0704 30.4097 14.6818 30.6277 15.3125 30.6277C15.9432 30.6277 16.5546 30.4097 17.043 30.0105C17.5313 29.6114 17.8667 29.0556 17.9922 28.4375H25.7578C25.8833 29.0556 26.2187 29.6114 26.707 30.0105C27.1954 30.4097 27.8068 30.6277 28.4375 30.6277C29.0682 30.6277 29.6796 30.4097 30.168 30.0105C30.6563 29.6114 30.9917 29.0556 31.1172 28.4375H33.9062C34.0513 28.4375 34.1904 28.3799 34.2929 28.2773C34.3955 28.1748 34.4531 28.0357 34.4531 27.8906V25.4844C34.4503 24.664 34.1412 23.8742 33.5864 23.2698C33.0317 22.6654 32.2712 22.2898 31.4541 22.2168ZM15.3125 29.5313C14.988 29.5313 14.6708 29.435 14.401 29.2548C14.1312 29.0745 13.9209 28.8183 13.7968 28.5185C13.6726 28.2187 13.6401 27.8888 13.7034 27.5706C13.7667 27.2523 13.923 26.96 14.1524 26.7305C14.3818 26.5011 14.6742 26.3448 14.9924 26.2815C15.3107 26.2182 15.6406 26.2507 15.9403 26.3749C16.2401 26.4991 16.4964 26.7093 16.6766 26.9791C16.8569 27.2489 16.9531 27.5661 16.9531 27.8906C16.9531 28.3257 16.7803 28.743 16.4726 29.0507C16.1649 29.3584 15.7476 29.5313 15.3125 29.5313ZM28.4375 29.5313C28.113 29.5313 27.7958 29.435 27.526 29.2548C27.2562 29.0745 27.0459 28.8183 26.9218 28.5185C26.7976 28.2187 26.7651 27.8888 26.8284 27.5706C26.8917 27.2523 27.048 26.96 27.2774 26.7305C27.5068 26.5011 27.7992 26.3448 28.1174 26.2815C28.4357 26.2182 28.7656 26.2507 29.0653 26.3749C29.3651 26.4991 29.6214 26.7093 29.8016 26.9791C29.9819 27.2489 30.0781 27.5661 30.0781 27.8906C30.0781 28.3257 29.9053 28.743 29.5976 29.0507C29.2899 29.3584 28.8726 29.5313 28.4375 29.5313ZM33.3594 27.3438H31.1172C30.9917 26.7256 30.6563 26.1699 30.168 25.7707C29.6796 25.3716 29.0682 25.1535 28.4375 25.1535C27.8068 25.1535 27.1954 25.3716 26.707 25.7707C26.2187 26.1699 25.8833 26.7256 25.7578 27.3438H17.9922C17.8667 26.7256 17.5313 26.1699 17.043 25.7707C16.5546 25.3716 15.9432 25.1535 15.3125 25.1535C14.6818 25.1535 14.0704 25.3716 13.582 25.7707C13.0937 26.1699 12.7583 26.7256 12.6328 27.3438H10.9375V23.3959L12.711 22.9523C12.8071 22.9283 12.8948 22.8786 12.9648 22.8086C13.0348 22.7385 13.0845 22.6508 13.1086 22.5548L13.9234 19.3063C14.1296 18.4777 14.6073 17.7419 15.2803 17.2163C15.9532 16.6907 16.7828 16.4055 17.6367 16.4063H22.832C23.6857 16.4054 24.5151 16.6904 25.1881 17.2157C25.861 17.7409 26.3388 18.4763 26.5453 19.3047L27.3602 22.5531C27.3867 22.6631 27.4467 22.7622 27.532 22.8366C27.6172 22.911 27.7234 22.9572 27.8359 22.9688L31.3551 23.3084C31.9004 23.3556 32.4084 23.605 32.7793 24.0076C33.1501 24.4102 33.357 24.937 33.3594 25.4844V27.3438Z" fill="#BDC2CC"/>
<path d="M25.107 19.2746C24.9101 18.7543 24.5598 18.3061 24.1026 17.9892C23.6454 17.6724 23.1028 17.5017 22.5465 17.5H17.9221C17.3659 17.5017 16.8232 17.6724 16.366 17.9892C15.9088 18.3061 15.5586 18.7543 15.3617 19.2746L14.2531 22.2277C14.2217 22.3106 14.2108 22.3999 14.2215 22.4879C14.2322 22.5759 14.2642 22.66 14.3146 22.7329C14.365 22.8058 14.4324 22.8654 14.511 22.9065C14.5895 22.9476 14.6769 22.9689 14.7656 22.9688H25.7031C25.7915 22.9688 25.8785 22.9474 25.9569 22.9065C26.0352 22.8655 26.1024 22.8062 26.1528 22.7335C26.2032 22.6609 26.2352 22.5772 26.2461 22.4894C26.257 22.4017 26.2465 22.3127 26.2155 22.2299L25.107 19.2746ZM20.2343 21.875H15.5547L16.386 19.6585C16.504 19.3463 16.7142 19.0774 16.9885 18.8872C17.2628 18.6971 17.5884 18.5948 17.9221 18.5938H20.2343V21.875ZM21.3281 21.875V18.5938H22.5465C22.8803 18.5948 23.2059 18.6971 23.4802 18.8872C23.7545 19.0774 23.9646 19.3463 24.0827 19.6585L24.9139 21.875H21.3281Z" fill="#BDC2CC"/>
<path d="M1.09375 32.8125H15.8594V31.7188H4.92188V12.0312H14.2188V10.9375H4.375C4.22996 10.9375 4.09086 10.9951 3.9883 11.0977C3.88574 11.2002 3.82812 11.3393 3.82812 11.4844V31.7188H1.64062V8.75H15.3125V13.6719H16.4062V8.20312C16.4062 8.05808 16.3486 7.91899 16.2461 7.81643C16.1435 7.71387 16.0044 7.65625 15.8594 7.65625H1.09375C0.94871 7.65625 0.80961 7.71387 0.707051 7.81643C0.604492 7.91899 0.546875 8.05808 0.546875 8.20312V32.2656C0.546875 32.4107 0.604492 32.5498 0.707051 32.6523C0.80961 32.7549 0.94871 32.8125 1.09375 32.8125Z" fill="#BDC2CC"/>
<path d="M8.75 22.9688H7.10938V24.0625H8.75V22.9688Z" fill="#BDC2CC"/>
<path d="M8.75 25.1562H6.01562V26.25H8.75V25.1562Z" fill="#BDC2CC"/>
<path d="M8.75 27.3438H7.10938V28.4375H8.75V27.3438Z" fill="#BDC2CC"/>
</svg>
