<svg width="34" height="34" viewBox="0 0 34 34" fill="none" xmlns="http://www.w3.org/2000/svg">
<path d="M27.4319 18.7839C27.3243 17.1582 26.6033 15.6341 25.4148 14.5199C24.2262 13.4057 22.6587 12.7845 21.0295 12.7821H19.1978C19.0569 12.7821 18.9218 12.838 18.8221 12.9377C18.7225 13.0373 18.6665 13.1724 18.6665 13.3133C18.6665 13.4542 18.7225 13.5893 18.8221 13.689C18.9218 13.7886 19.0569 13.8446 19.1978 13.8446H21.0295C22.3577 13.8464 23.638 14.3411 24.6224 15.2327C25.6069 16.1243 26.2255 17.3495 26.3585 18.671H17.5312V9.2126C17.5313 9.13676 17.515 9.06179 17.4836 8.99275C17.4522 8.9237 17.4064 8.86217 17.3493 8.81231L10.443 2.7874C10.3463 2.70285 10.2222 2.65625 10.0938 2.65625C9.96528 2.65625 9.84117 2.70285 9.74445 2.7874L2.8382 8.81231C2.78106 8.86217 2.73525 8.9237 2.70387 8.99275C2.67248 9.06179 2.65625 9.13676 2.65625 9.2126V30.8127C2.65625 30.9536 2.71222 31.0887 2.81185 31.1883C2.91148 31.288 3.0466 31.3439 3.1875 31.3439H17C17.1409 31.3439 17.276 31.288 17.3757 31.1883C17.4753 31.0887 17.5312 30.9536 17.5312 30.8127V28.9533H23.9485V30.2814C23.9488 30.5632 24.0608 30.8332 24.26 31.0324C24.4592 31.2316 24.7293 31.3437 25.011 31.3439H29.2272C29.509 31.3437 29.779 31.2316 29.9782 31.0324C30.1774 30.8332 30.2895 30.5632 30.2897 30.2814V28.9533H30.8125C30.9534 28.9533 31.0885 28.8974 31.1882 28.7977C31.2878 28.6981 31.3438 28.563 31.3438 28.4221V23.6275C31.3421 22.4951 30.9532 21.3972 30.2416 20.5161C29.5301 19.6351 28.5387 19.0239 27.4319 18.7839ZM16.4688 30.2812H3.71875V9.45379L10.0938 3.8924L16.4688 9.45379V30.2812ZM17.5312 19.7332H26.3872C27.4196 19.7344 28.4094 20.1451 29.1394 20.8751C29.8694 21.6051 30.2801 22.5949 30.2812 23.6273V27.8906H17.5312V19.7332ZM29.2278 30.2812H25.011V28.9531H29.2272L29.2278 30.2812ZM28.7024 24.1272C28.7024 23.6286 28.5545 23.1413 28.2776 22.7267C28.0006 22.3122 27.6069 21.9891 27.1463 21.7983C26.6857 21.6075 26.1789 21.5576 25.6899 21.6548C25.2009 21.7521 24.7518 21.9921 24.3992 22.3446C24.0467 22.6971 23.8066 23.1463 23.7093 23.6352C23.612 24.1242 23.6619 24.631 23.8526 25.0917C24.0434 25.5523 24.3664 25.946 24.7809 26.223C25.1954 26.5 25.6828 26.6479 26.1813 26.648C26.8497 26.6473 27.4905 26.3815 27.9631 25.9089C28.4357 25.4363 28.7016 24.7955 28.7024 24.1272ZM24.723 24.1272C24.723 23.8388 24.8086 23.5568 24.9688 23.317C25.129 23.0772 25.3568 22.8903 25.6233 22.7799C25.8897 22.6695 26.1829 22.6407 26.4658 22.6969C26.7487 22.7532 27.0085 22.8921 27.2125 23.096C27.4164 23.3 27.5553 23.5598 27.6116 23.8427C27.6679 24.1256 27.639 24.4188 27.5286 24.6852C27.4182 24.9517 27.2313 25.1795 26.9915 25.3397C26.7517 25.4999 26.4697 25.5855 26.1813 25.5855C25.7947 25.585 25.424 25.4313 25.1506 25.1579C24.8772 24.8845 24.7235 24.5138 24.723 24.1272ZM13.2457 18.5121C13.3866 18.5121 13.5217 18.4562 13.6213 18.3565C13.7209 18.2569 13.7769 18.1218 13.7769 17.9809C13.7769 17.84 13.7209 17.7049 13.6213 17.6052C13.5217 17.5056 13.3866 17.4496 13.2457 17.4496H10.625V16.58C10.625 16.4391 10.569 16.304 10.4694 16.2043C10.3698 16.1047 10.2346 16.0487 10.0938 16.0487C9.95285 16.0487 9.81773 16.1047 9.7181 16.2043C9.61847 16.304 9.5625 16.4391 9.5625 16.58V17.4496H8.75394C8.13248 17.4496 7.53647 17.6965 7.09704 18.1359C6.6576 18.5754 6.41073 19.1714 6.41073 19.7928C6.41073 20.4143 6.6576 21.0103 7.09704 21.4497C7.53647 21.8892 8.13248 22.1361 8.75394 22.1361H9.5625V24.6977H6.94184C6.80095 24.6977 6.66582 24.7537 6.56619 24.8533C6.46656 24.953 6.41059 25.0881 6.41059 25.229C6.41059 25.3699 6.46656 25.505 6.56619 25.6046C6.66582 25.7043 6.80095 25.7602 6.94184 25.7602H9.5625V26.6299C9.5625 26.7708 9.61847 26.9059 9.7181 27.0056C9.81773 27.1052 9.95285 27.1612 10.0938 27.1612C10.2346 27.1612 10.3698 27.1052 10.4694 27.0056C10.569 26.9059 10.625 26.7708 10.625 26.6299V25.7602H11.4336C12.0551 25.7602 12.6511 25.5134 13.0906 25.0739C13.53 24.6344 13.7769 24.0384 13.7769 23.4169C13.7769 22.7954 13.53 22.1994 13.0906 21.7599C12.6511 21.3204 12.0551 21.0736 11.4336 21.0736H10.625V18.5121H13.2457ZM11.4336 22.1361C11.7733 22.1361 12.0991 22.271 12.3393 22.5112C12.5795 22.7514 12.7144 23.0772 12.7144 23.4169C12.7144 23.7566 12.5795 24.0824 12.3393 24.3226C12.0991 24.5628 11.7733 24.6977 11.4336 24.6977H10.625V22.1361H11.4336ZM9.5625 21.0736H8.75394C8.41427 21.0736 8.08852 20.9386 7.84834 20.6984C7.60816 20.4583 7.47323 20.1325 7.47323 19.7928C7.47323 19.4532 7.60816 19.1274 7.84834 18.8872C8.08852 18.6471 8.41427 18.5121 8.75394 18.5121H9.5625V21.0736ZM10.0938 11.5198C10.494 11.5198 10.8852 11.4011 11.218 11.1788C11.5508 10.9564 11.8101 10.6404 11.9633 10.2706C12.1164 9.90083 12.1565 9.49396 12.0784 9.10142C12.0003 8.70889 11.8075 8.34833 11.5245 8.06535C11.2415 7.78236 10.8809 7.58966 10.4884 7.51161C10.0958 7.43356 9.68894 7.47367 9.31919 7.62687C8.94945 7.78007 8.63343 8.03947 8.41112 8.37227C8.1888 8.70507 8.07017 9.09633 8.07022 9.49656C8.07085 10.033 8.28426 10.5473 8.66361 10.9266C9.04297 11.3059 9.55729 11.5193 10.0938 11.5198ZM10.0938 8.53553C10.2838 8.53553 10.4696 8.59189 10.6277 8.69749C10.7857 8.80309 10.9089 8.95318 10.9816 9.12879C11.0544 9.30439 11.0734 9.49762 11.0363 9.68405C10.9992 9.87047 10.9077 10.0417 10.7733 10.1761C10.6389 10.3105 10.4677 10.402 10.2812 10.4391C10.0948 10.4762 9.90159 10.4572 9.72598 10.3844C9.55037 10.3117 9.40028 10.1885 9.29468 10.0305C9.18908 9.87244 9.13272 9.68663 9.13272 9.49656C9.133 9.24176 9.23434 8.99748 9.41451 8.81732C9.59468 8.63715 9.83895 8.53581 10.0938 8.53553Z" fill="#BDC2CC"/>
</svg>
