<svg width="28" height="28" viewBox="0 0 28 28" fill="none" xmlns="http://www.w3.org/2000/svg">
<g clip-path="url(#clip0_3513_1808)">
<path d="M19.9499 27.7082H19.5999C18.4333 27.7082 17.4416 26.6582 17.4416 25.4332V24.0332H18.6083V25.4332C18.6083 26.0749 19.0749 26.5415 19.5999 26.5415H19.9499C20.4749 26.5415 20.9416 26.0165 20.9416 25.4332V24.0332H22.1083V25.4332C22.1083 26.6582 21.1166 27.7082 19.9499 27.7082ZM8.39993 27.7082H8.04993C6.88327 27.7082 5.8916 26.6582 5.8916 25.4332V24.0332H7.05827V25.4332C7.05827 26.0749 7.52493 26.5415 8.04993 26.5415H8.39993C8.92493 26.5415 9.3916 26.0165 9.3916 25.4332V24.0332H10.5583V25.4332C10.5583 26.6582 9.5666 27.7082 8.39993 27.7082Z" fill="#B5BDCD"/>
<path d="M21.3501 24.4998H6.65006C4.55006 24.4998 2.8584 22.8082 2.8584 20.7082V4.08317C2.8584 1.98317 4.55006 0.291504 6.65006 0.291504H21.2917C23.3917 0.291504 25.0834 1.98317 25.0834 4.08317V20.6498C25.1417 22.7498 23.4501 24.4998 21.3501 24.4998ZM6.65006 1.45817C5.19173 1.45817 4.02507 2.62484 4.02507 4.08317V20.6498C4.02507 22.1082 5.19173 23.2748 6.65006 23.2748H21.2917C22.7501 23.2748 23.9167 22.1082 23.9167 20.6498V4.08317C23.9167 2.62484 22.7501 1.45817 21.2917 1.45817H6.65006Z" fill="#B5BDCD"/>
<path d="M3.3833 5.25H24.5V6.41667H3.3833V5.25ZM3.3833 15.225H24.5V16.3917H3.3833V15.225Z" fill="#B5BDCD"/>
<path d="M13.3583 5.8335H14.525V15.8085H13.3583V5.8335ZM19.775 22.2252C18.55 22.2252 17.5583 21.2335 17.5583 19.9502C17.5583 18.7252 18.55 17.6752 19.775 17.6752C21 17.6752 21.9916 18.6668 21.9916 19.9502C21.9916 21.2335 21 22.2252 19.775 22.2252ZM19.775 18.9002C19.1916 18.9002 18.725 19.3668 18.725 20.0085C18.725 20.6502 19.1916 21.1168 19.775 21.1168C20.3583 21.1168 20.825 20.6502 20.825 20.0085C20.825 19.3668 20.3583 18.9002 19.775 18.9002ZM8.22497 22.2252C6.99997 22.2252 6.0083 21.2335 6.0083 19.9502C6.0083 18.7252 6.99997 17.6752 8.22497 17.6752C9.44997 17.6752 10.4416 18.6668 10.4416 19.9502C10.3833 21.2335 9.39163 22.2252 8.22497 22.2252ZM8.22497 18.9002C7.64163 18.9002 7.17497 19.3668 7.17497 20.0085C7.17497 20.6502 7.64163 21.1168 8.22497 21.1168C8.8083 21.1168 9.27497 20.6502 9.27497 20.0085C9.27497 19.3668 8.74997 18.9002 8.22497 18.9002ZM12.1916 19.3668H15.8666V20.5335H12.1916V19.3668Z" fill="#B5BDCD"/>
<path d="M26.0751 12.0748H24.5584V10.9081H26.0751C26.3084 10.9081 26.5417 10.6748 26.5417 10.4414V5.19144C26.5417 4.95811 26.3668 4.72477 26.0751 4.72477H24.5584V3.55811H26.0751C26.9501 3.55811 27.7084 4.31644 27.7084 5.19144V10.3831C27.7084 11.3164 27.0084 12.0748 26.0751 12.0748ZM3.44175 12.0748H1.92508C1.05008 12.0748 0.291748 11.3164 0.291748 10.4414V5.19144C0.291748 4.25811 0.991748 3.55811 1.92508 3.55811H3.44175V4.72477H1.92508C1.69175 4.72477 1.45841 4.95811 1.45841 5.19144V10.3831C1.45841 10.6164 1.63341 10.8498 1.92508 10.8498H3.44175V12.0748Z" fill="#B5BDCD"/>
</g>
<defs>
<clipPath id="clip0_3513_1808">
<rect width="28" height="28" fill="white"/>
</clipPath>
</defs>
</svg>
