<svg width="28" height="28" viewBox="0 0 28 28" fill="none" xmlns="http://www.w3.org/2000/svg">
<g clip-path="url(#clip0_3513_1790)">
<path d="M22.3125 2.625C23.9969 2.625 25.375 4.00312 25.375 5.6875C25.375 5.92812 25.5719 6.125 25.8125 6.125C26.0531 6.125 26.25 5.92812 26.25 5.6875C26.25 3.52188 24.4781 1.75 22.3125 1.75C22.0719 1.75 21.875 1.94687 21.875 2.1875C21.875 2.42813 22.0719 2.625 22.3125 2.625Z" fill="#BDC2CC"/>
<path d="M22.3124 4.375C23.0343 4.375 23.6249 4.96562 23.6249 5.6875C23.6249 5.92812 23.8218 6.125 24.0624 6.125C24.303 6.125 24.4999 5.92812 24.4999 5.6875C24.4999 4.48438 23.5155 3.5 22.3124 3.5C22.0718 3.5 21.8749 3.69688 21.8749 3.9375C21.8749 4.17812 22.0718 4.375 22.3124 4.375ZM22.3124 0.875C24.9593 0.875 27.1249 3.04062 27.1249 5.6875C27.1249 5.92812 27.3218 6.125 27.5624 6.125C27.803 6.125 27.9999 5.92812 27.9999 5.6875C27.9999 2.55938 25.4405 0 22.3124 0C22.0718 0 21.8749 0.196875 21.8749 0.4375C21.8749 0.678125 22.0718 0.875 22.3124 0.875ZM14.0437 1.46562C13.103 0.525 11.8343 0 10.4999 0C9.16553 0 7.91865 0.525 6.95615 1.46562L5.75303 2.66875L5.11865 2.03437C4.26553 1.18125 2.8874 1.18125 2.03428 2.03437C1.61865 2.45 1.3999 2.99687 1.3999 3.5875C1.3999 4.17812 1.61865 4.725 2.03428 5.14062L2.66865 5.775L1.46553 6.97813C-0.481348 8.925 -0.481348 12.1188 1.46553 14.0656L13.9562 26.5562C14.8968 27.4969 16.1655 28.0219 17.4999 28.0219C18.8343 28.0219 20.103 27.4969 21.0437 26.5562L26.5343 21.0656C27.4749 20.125 27.9999 18.8562 27.9999 17.5219C27.9999 16.1875 27.4749 14.9188 26.5343 13.9781L14.0437 1.46562ZM2.64678 4.50625C2.40615 4.26562 2.25303 3.9375 2.25303 3.5875C2.25303 3.2375 2.38428 2.90937 2.64678 2.66875C3.1499 2.16562 3.98115 2.16562 4.50615 2.66875L5.14053 3.30313L3.28115 5.14062L2.64678 4.50625ZM25.9218 20.4094L20.4312 25.9C18.8124 27.5188 16.1874 27.5188 14.5905 25.9L2.07803 13.4313C0.481152 11.8125 0.481152 9.1875 2.07803 7.59063L7.59053 2.07812C8.37803 1.29062 9.4499 0.875 10.4999 0.875C11.5499 0.875 12.6218 1.26875 13.4312 2.07812L25.9218 14.5687C26.7093 15.3562 27.1249 16.3844 27.1249 17.5C27.1249 18.5938 26.6874 19.6438 25.9218 20.4094Z" fill="#BDC2CC"/>
<path d="M12.7095 2.69072C11.4845 1.46572 9.49385 1.46572 8.29072 2.69072L2.69072 8.29072C2.1001 8.88135 1.77197 9.66885 1.77197 10.5001C1.77197 11.3313 2.1001 12.1188 2.69072 12.7095L15.2907 25.3095C15.9032 25.922 16.7126 26.2282 17.5001 26.2282C18.2876 26.2282 19.097 25.922 19.7095 25.3095L25.3095 19.7095C25.9001 19.1188 26.2282 18.3313 26.2282 17.5001C26.2282 16.6688 25.9001 15.8813 25.3095 15.2907L12.7095 2.69072ZM2.64697 10.5001C2.64697 9.8876 2.8876 9.34072 3.30322 8.90322L8.90322 3.30322C9.34072 2.86572 9.90947 2.64697 10.5001 2.64697C11.0907 2.64697 11.6595 2.86572 12.097 3.30322L18.0907 9.29697L9.29697 18.0907L3.30322 12.097C2.8876 11.6595 2.64697 11.1126 2.64697 10.5001ZM24.697 19.097L19.097 24.697C18.222 25.572 16.7782 25.572 15.9032 24.697L9.90947 18.7032L18.7032 9.90947L24.697 15.9032C25.572 16.7782 25.572 18.222 24.697 19.097Z" fill="#BDC2CC"/>
<path d="M10.4126 14.1093C10.872 14.1093 11.3532 13.9343 11.6813 13.6062L13.6063 11.6812C14.2845 11.0031 14.2845 9.82181 13.6063 9.14368L12.3813 7.91868C11.922 7.45931 11.1345 7.45931 10.697 7.89681L9.90947 7.10931C9.12197 6.32181 7.85322 6.34368 7.0876 7.10931C6.32197 7.87493 6.2126 9.05618 7.0876 9.93118L7.8751 10.7187C7.39385 11.1999 7.37197 11.8562 7.89697 12.4031L9.12197 13.6281C9.49385 13.9343 9.95322 14.1093 10.4126 14.1093ZM7.7001 7.69993C8.0501 7.34993 8.77197 7.19681 9.2751 7.69993L10.0626 8.48743L8.4876 10.0624L7.7001 9.27493C7.15322 8.72806 7.3501 8.07181 7.7001 7.69993ZM8.53135 11.2656L11.2657 8.53118C11.4188 8.37806 11.5938 8.37806 11.747 8.53118L12.972 9.75618C13.3001 10.0843 13.3001 10.7187 12.972 11.0468L11.047 12.9718C10.7188 13.2999 10.0845 13.2999 9.73447 12.9718L8.53135 11.7687C8.4001 11.6374 8.42197 11.3749 8.53135 11.2656ZM20.9345 15.5968C20.4532 15.1156 19.7532 15.1374 19.2938 15.5968L17.3032 17.5874L16.5813 16.8656C15.772 16.0562 14.722 16.0562 13.9126 16.8656C13.5188 17.2593 13.3001 17.7187 13.3001 18.1999C13.3001 18.6812 13.5188 19.1406 13.9126 19.5343L14.9407 20.5624C15.1157 20.7374 15.3782 20.7374 15.5532 20.5624C15.7282 20.3874 15.7282 20.1249 15.5532 19.9499L14.5251 18.9218C14.372 18.7687 14.1751 18.5062 14.1751 18.1999C14.1751 17.8937 14.372 17.6531 14.5251 17.4781C14.6782 17.3249 14.9407 17.1281 15.247 17.1281C15.5532 17.1281 15.7938 17.3249 15.9688 17.4781L16.6907 18.1999C16.2532 18.6374 16.2751 19.3156 16.7345 19.7749L17.8938 20.9343C18.222 21.2624 18.6595 21.4156 19.097 21.4156C19.5345 21.4156 19.972 21.2624 20.3001 20.9343L22.0938 19.1406C22.7282 18.5062 22.7282 17.3687 22.0938 16.7343L20.9345 15.5968ZM21.4595 18.5499L19.6657 20.3437C19.3595 20.6499 18.7907 20.6499 18.4845 20.3437L17.347 19.2062C17.2595 19.1187 17.2595 18.8781 17.347 18.7906L19.9063 16.2312C20.0157 16.1218 20.2126 16.1218 20.322 16.2312L21.4813 17.3906C21.7657 17.6749 21.7657 18.2437 21.4595 18.5499Z" fill="#BDC2CC"/>
</g>
<defs>
<clipPath id="clip0_3513_1790">
<rect width="28" height="28" fill="white"/>
</clipPath>
</defs>
</svg>
