<svg width="31" height="31" viewBox="0 0 31 31" fill="none" xmlns="http://www.w3.org/2000/svg">
<g clip-path="url(#clip0_3513_1833)">
<path d="M30.8063 12.3352L22.798 4.32686C22.5396 4.06853 22.1521 4.06853 21.8938 4.32686L18.923 7.29769C18.6646 7.55603 18.6646 7.94353 18.923 8.20186L19.1167 8.39561C18.7292 8.71853 18.2126 8.91228 17.6959 8.97686C17.1146 9.04144 16.5334 9.23519 16.0167 9.55811L15.6292 9.17061C14.9834 8.52478 14.0792 8.07269 13.1105 7.94353C12.5938 7.87894 12.1417 7.68519 11.6896 7.36228L11.8834 7.16853C12.1417 6.91019 12.1417 6.52269 11.8834 6.26436L8.91256 3.29353C8.52506 2.90603 8.13756 3.16436 8.00839 3.29353L0.193808 11.3019C0.0646408 11.431 -0.129109 11.8831 0.193808 12.206L3.16464 15.1769C3.48756 15.5644 3.93964 15.306 4.06881 15.1769L4.32714 14.9185C4.65006 15.306 4.77922 15.7581 4.84381 16.2102C4.97297 17.1789 5.42506 18.1477 6.07089 18.7935L6.39381 19.1164L5.81256 19.6977C4.00422 21.8935 6.07089 23.3789 6.78131 23.4435C6.65214 23.7664 6.65214 24.0894 6.58756 24.4123C6.52297 24.9289 7.49172 26.9956 9.55839 26.2206C9.62297 26.6081 9.81672 26.9956 10.1396 27.2539C11.6251 28.5456 12.9813 27.5123 13.3042 27.1894L13.8855 26.6081C13.8855 26.6081 15.3063 28.7394 17.3084 27.4477C17.6959 27.1894 17.9542 26.8019 18.0834 26.4144C20.0855 27.7706 21.5063 25.7039 21.5063 25.1873C22.6042 25.6394 23.5084 24.9935 23.8313 24.6706C24.4771 24.0248 24.6063 23.1206 24.348 22.3456C24.7355 22.2164 26.7376 21.3769 25.6396 19.0519C25.9626 18.5352 26.1563 17.9539 26.2855 17.3081C26.3501 16.7914 26.5438 16.3394 26.8667 15.8873C26.8667 15.8873 27.448 16.6623 27.9646 16.081L30.9355 13.1102C31.0646 12.981 31.0646 12.5935 30.8063 12.3352ZM3.61672 13.756L1.61464 11.7539L8.71881 4.64978L10.7209 6.65186L3.61672 13.756ZM6.58756 21.9581C6.26464 21.6352 6.32922 20.9894 6.71672 20.6664L7.29797 20.0852L8.58964 21.3769L7.94381 22.0227C7.29797 22.4748 6.78131 22.0873 6.58756 21.9581ZM8.20214 24.9289C7.49172 24.4123 8.00839 23.7019 8.58964 23.1206C8.65422 23.056 9.49381 22.281 9.49381 22.281L10.7855 23.5727C10.7209 23.5081 9.10631 25.7039 8.20214 24.9289ZM12.2709 26.3498C11.948 26.6727 11.3667 26.6727 10.9792 26.3498C10.6563 26.0269 10.6563 25.6394 10.8501 25.2519C11.0438 25.0581 11.6251 24.4123 11.6251 24.4123L12.8521 25.6394L12.2709 26.3498ZM24.4126 20.8602C23.8959 21.3769 23.3146 21.0539 23.1209 20.8602L19.1813 16.9206C18.923 16.6623 18.5355 16.6623 18.2771 16.9206C18.0188 17.1789 18.0188 17.5664 18.2771 17.8248L22.9271 22.4748C23.2501 22.7977 23.2501 23.3789 22.9271 23.7664C22.6042 24.0894 22.023 24.0894 21.6355 23.7664L15.8876 18.0185C15.6292 17.7602 15.2417 17.7602 14.9834 18.0185C14.7251 18.2769 14.7251 18.6644 14.9834 18.9227L20.0209 23.9602C20.3438 24.2831 20.3438 24.8644 20.0209 25.2519C19.698 25.5748 19.1167 25.5748 18.7292 25.2519L13.6917 20.2144C13.4334 19.956 13.0459 19.956 12.7876 20.2144C12.5292 20.4727 12.5292 20.8602 12.7876 21.1185L16.6626 24.9935C17.0501 25.381 16.9855 25.9623 16.6626 26.2852C16.2751 26.6081 15.7584 26.6081 15.4355 26.2852L14.3376 25.1873L6.97506 17.8894C6.52297 17.4373 6.20006 16.7914 6.13547 16.1456C6.00631 15.3706 5.68339 14.5956 5.23131 14.0144L10.9792 8.26644C11.6251 8.78311 12.3355 9.10603 13.1105 9.17061C13.7563 9.23519 14.4021 9.55811 14.8542 10.0102L15.048 10.2039L11.3667 12.5289C9.10631 14.0789 11.0438 17.3081 13.3042 16.2748L18.7292 13.9498L24.2834 19.5039C24.6709 19.956 24.7355 20.5373 24.4126 20.8602ZM24.8646 17.1789C24.8001 17.5019 24.7355 17.7602 24.6063 18.0185L19.2459 12.6581C19.2459 12.6581 18.9876 12.3998 18.6001 12.5935L12.8521 15.1123C12.4001 15.306 11.948 15.1123 11.6896 14.7248C11.4959 14.3373 11.6251 13.8206 12.0126 13.5623L16.4042 10.9144C16.4042 10.9144 17.3084 10.2685 17.9542 10.2685C18.7292 10.2685 19.5042 9.81644 20.0855 9.36436L25.8334 15.1123C25.3167 15.6935 24.9938 16.4039 24.8646 17.1789ZM27.3834 14.8539L20.2792 7.74978L22.2813 5.74769L29.3855 12.8519L27.3834 14.8539Z" fill="#B5BDCD"/>
</g>
<defs>
<clipPath id="clip0_3513_1833">
<rect width="31" height="31" fill="white"/>
</clipPath>
</defs>
</svg>
