<svg width="31" height="31" viewBox="0 0 31 31" fill="none" xmlns="http://www.w3.org/2000/svg">
<path d="M13.3025 23.3299C17.6161 23.3299 21.113 19.8636 21.113 15.5878C21.113 11.312 17.6161 7.8457 13.3025 7.8457C8.98883 7.8457 5.49194 11.312 5.49194 15.5878C5.49194 19.8636 8.98883 23.3299 13.3025 23.3299Z" stroke="#BDC2CC" stroke-width="1.5" stroke-miterlimit="10" stroke-linecap="round" stroke-linejoin="round"/>
<path d="M19.2751 21.6089L25.7073 27.6305" stroke="#BDC2CC" stroke-width="1.5" stroke-miterlimit="10" stroke-linecap="round" stroke-linejoin="round"/>
<path d="M23.4753 14.9092C23.7478 14.9195 24.0226 15.0258 24.2482 15.249C24.7042 15.7003 25.4436 15.7002 25.8996 15.249L26.4705 14.6841C26.9266 14.2328 26.9265 13.5013 26.4705 13.0501C25.7349 12.3222 26.2559 11.0775 27.2963 11.0775C27.9412 11.0776 28.4641 10.5603 28.4641 9.92203L28.464 9.12329C28.464 8.4851 27.9413 7.96778 27.2962 7.96778C26.2559 7.96778 25.7349 6.72319 26.4705 5.99526C26.9265 5.544 26.9265 4.81238 26.4705 4.36112L25.8996 3.79625C25.4435 3.34499 24.7042 3.34504 24.2481 3.79631C23.5125 4.52418 22.2546 4.0087 22.2546 2.97924C22.2546 2.34105 21.7318 1.82373 21.0868 1.82373H20.2797C19.6347 1.82373 19.1119 2.34099 19.1119 2.97924C19.1119 4.00864 17.8541 4.52418 17.1184 3.79631C16.6623 3.34504 15.9229 3.34504 15.4669 3.79625L14.896 4.36112C14.44 4.81238 14.44 5.544 14.896 5.99526C15.08 6.17725 15.1853 6.39148 15.2236 6.61054M19.4295 8.28218C20.1219 7.59704 21.2446 7.59704 21.9371 8.28218C22.6295 8.96731 22.6294 10.0782 21.9371 10.7633M11.8876 6.12006C12.1148 5.69141 11.9479 5.16165 11.5147 4.9367L10.9724 4.65516C10.5392 4.43027 10.0038 4.59547 9.77654 5.02406C9.40991 5.71551 8.38134 5.62321 8.14648 4.87767C8.00093 4.41551 7.50427 4.15765 7.03714 4.30179L6.45255 4.48216C5.98548 4.62624 5.72488 5.11761 5.87054 5.57982C6.1054 6.32531 5.31217 6.97962 4.61337 6.61685C4.18016 6.39196 3.64471 6.5571 3.41736 6.98575L3.13283 7.52229C2.90555 7.95094 3.0725 8.4807 3.50572 8.70565C4.20452 9.06842 4.11124 10.0862 3.35776 10.3185C2.89069 10.4626 2.63009 10.954 2.77576 11.4162L2.95799 11.9946C3.1036 12.4567 3.6002 12.7146 4.06733 12.5705" stroke="#BDC2CC" stroke-width="1.5" stroke-miterlimit="10" stroke-linecap="round" stroke-linejoin="round"/>
<path d="M10.0867 16.2855L12.0515 18.1682L17.4377 13.0068" stroke="#BDC2CC" stroke-width="1.5" stroke-miterlimit="10" stroke-linecap="round" stroke-linejoin="round"/>
</svg>
