<svg width="28" height="28" viewBox="0 0 28 28" fill="none" xmlns="http://www.w3.org/2000/svg">
<path d="M10.5001 4.6665C9.34636 4.6665 8.21854 5.00862 7.25926 5.6496C6.29997 6.29057 5.5523 7.20161 5.11079 8.26752C4.66928 9.33342 4.55376 10.5063 4.77884 11.6379C5.00392 12.7694 5.55949 13.8088 6.37529 14.6246C7.1911 15.4404 8.2305 15.996 9.36206 16.2211C10.4936 16.4462 11.6665 16.3306 12.7324 15.8891C13.7983 15.4476 14.7093 14.7 15.3503 13.7407C15.9913 12.7814 16.3334 11.6536 16.3334 10.4998C16.3334 9.73379 16.1825 8.97525 15.8894 8.26752C15.5962 7.55978 15.1665 6.91672 14.6249 6.37505C14.0832 5.83337 13.4401 5.40369 12.7324 5.11054C12.0247 4.81739 11.2661 4.6665 10.5001 4.6665ZM10.5001 15.1665C9.5771 15.1665 8.67485 14.8928 7.90742 14.38C7.13999 13.8672 6.54186 13.1384 6.18865 12.2857C5.83544 11.433 5.74302 10.4947 5.92309 9.58942C6.10315 8.68417 6.54761 7.85265 7.20025 7.20001C7.8529 6.54736 8.68442 6.1029 9.58966 5.92284C10.4949 5.74277 11.4332 5.83519 12.2859 6.1884C13.1387 6.54161 13.8675 7.13975 14.3803 7.90718C14.8931 8.67461 15.1667 9.57686 15.1667 10.4998C15.1667 11.7375 14.6751 12.9245 13.7999 13.7997C12.9247 14.6748 11.7378 15.1665 10.5001 15.1665Z" fill="#BDC2CC"/>
<path d="M12.9851 23.0182C12.204 23.887 11.3744 24.7108 10.5001 25.4857C8.87258 24.0565 2.33341 17.8557 2.33341 10.4998C2.33341 8.3339 3.19383 6.25668 4.72538 4.72513C6.25692 3.19358 8.33415 2.33317 10.5001 2.33317C12.666 2.33317 14.7432 3.19358 16.2748 4.72513C17.8063 6.25668 18.6667 8.3339 18.6667 10.4998C18.6618 11.4395 18.5582 12.376 18.3576 13.294C18.3415 13.3706 18.3407 13.4496 18.3551 13.5266C18.3696 13.6035 18.399 13.6768 18.4418 13.7424C18.4846 13.8079 18.5399 13.8644 18.6045 13.9086C18.6691 13.9527 18.7418 13.9838 18.8184 13.9998C18.895 14.0159 18.974 14.0168 19.051 14.0023C19.1279 13.9879 19.2012 13.9584 19.2668 13.9156C19.3323 13.8728 19.3888 13.8175 19.433 13.7529C19.4771 13.6883 19.5082 13.6156 19.5242 13.539C19.7334 12.5396 19.837 11.5209 19.8334 10.4998C19.8334 8.02448 18.8501 5.65051 17.0997 3.90017C15.3494 2.14983 12.9754 1.1665 10.5001 1.1665C8.02473 1.1665 5.65076 2.14983 3.90042 3.90017C2.15008 5.65051 1.16675 8.02448 1.16675 10.4998C1.16675 19.4248 9.77091 26.4132 10.1384 26.7048C10.241 26.7872 10.3685 26.8324 10.5001 26.8332C10.6337 26.8337 10.7634 26.7884 10.8676 26.7048C11.9316 25.8073 12.9279 24.8324 13.8484 23.7882C13.9088 23.7333 13.957 23.6664 13.9899 23.5918C14.0228 23.5171 14.0396 23.4364 14.0394 23.3549C14.0392 23.2733 14.0218 23.1927 13.9885 23.1182C13.9552 23.0438 13.9067 22.9771 13.846 22.9226C13.7853 22.8681 13.7139 22.8269 13.6363 22.8017C13.5587 22.7765 13.4767 22.7678 13.3956 22.7763C13.3145 22.7848 13.236 22.8101 13.1653 22.8508C13.0946 22.8914 13.0332 22.9465 12.9851 23.0123V23.0182Z" fill="#BDC2CC"/>
<path d="M26.25 20.4165H25.6667V18.6665C25.6667 18.5118 25.7281 18.3634 25.8375 18.254C25.9469 18.1446 26.0953 18.0832 26.25 18.0832C26.4047 18.0832 26.5531 18.0217 26.6625 17.9123C26.7719 17.8029 26.8333 17.6545 26.8333 17.4998C26.8333 17.3451 26.7719 17.1968 26.6625 17.0874C26.5531 16.978 26.4047 16.9165 26.25 16.9165C25.7859 16.9165 25.3408 17.1009 25.0126 17.4291C24.6844 17.7573 24.5 18.2024 24.5 18.6665V20.4165H23.3333V17.4998C23.3333 16.881 23.0875 16.2875 22.6499 15.8499C22.2123 15.4123 21.6188 15.1665 21 15.1665H17.5C16.8812 15.1665 16.2877 15.4123 15.8501 15.8499C15.4125 16.2875 15.1667 16.881 15.1667 17.4998V25.6665H14.5833C14.4286 25.6665 14.2803 25.728 14.1709 25.8374C14.0615 25.9468 14 26.0951 14 26.2498C14 26.4045 14.0615 26.5529 14.1709 26.6623C14.2803 26.7717 14.4286 26.8332 14.5833 26.8332H23.9167C24.0714 26.8332 24.2197 26.7717 24.3291 26.6623C24.4385 26.5529 24.5 26.4045 24.5 26.2498C24.5 26.0951 24.4385 25.9468 24.3291 25.8374C24.2197 25.728 24.0714 25.6665 23.9167 25.6665H23.3333V24.4998H23.9167C24.3808 24.4998 24.8259 24.3155 25.1541 23.9873C25.4823 23.6591 25.6667 23.214 25.6667 22.7498V21.5832H26.25C26.4047 21.5832 26.5531 21.5217 26.6625 21.4123C26.7719 21.3029 26.8333 21.1545 26.8333 20.9998C26.8333 20.8451 26.7719 20.6968 26.6625 20.5874C26.5531 20.478 26.4047 20.4165 26.25 20.4165ZM16.3333 25.6665V17.4998C16.3333 17.1904 16.4562 16.8937 16.675 16.6749C16.8938 16.4561 17.1906 16.3332 17.5 16.3332H21C21.3094 16.3332 21.6062 16.4561 21.825 16.6749C22.0438 16.8937 22.1667 17.1904 22.1667 17.4998V25.6665H16.3333ZM24.5 22.7498C24.5 22.9045 24.4385 23.0529 24.3291 23.1623C24.2197 23.2717 24.0714 23.3332 23.9167 23.3332H23.3333V21.5832H24.5V22.7498Z" fill="#BDC2CC"/>
<path d="M20.4167 21.5833H19.1742L19.7575 20.7375C19.8084 20.6743 19.8456 20.6012 19.8666 20.5228C19.8877 20.4444 19.8921 20.3624 19.8797 20.2822C19.8672 20.202 19.8382 20.1253 19.7944 20.057C19.7507 19.9886 19.6931 19.9301 19.6254 19.8853C19.5578 19.8405 19.4815 19.8103 19.4015 19.7966C19.3215 19.7829 19.2395 19.7861 19.1608 19.8059C19.0821 19.8257 19.0084 19.8617 18.9444 19.9117C18.8804 19.9616 18.8275 20.0243 18.7892 20.0958L17.6225 21.8458C17.5668 21.9319 17.5348 22.0312 17.5297 22.1336C17.5245 22.236 17.5465 22.338 17.5933 22.4292C17.6395 22.5211 17.7091 22.5992 17.7951 22.6555C17.8812 22.7119 17.9806 22.7445 18.0833 22.75H19.3258L18.7425 23.5958C18.6581 23.7244 18.6279 23.8812 18.6585 24.032C18.689 24.1827 18.778 24.3153 18.9058 24.4008C19.0062 24.4715 19.1274 24.5064 19.25 24.5C19.3461 24.4995 19.4405 24.4753 19.525 24.4295C19.6095 24.3837 19.6813 24.3177 19.7342 24.2375L20.9008 22.4875C20.9565 22.4014 20.9886 22.3022 20.9937 22.1997C20.9988 22.0973 20.9768 21.9954 20.93 21.9042C20.882 21.8088 20.8087 21.7285 20.7182 21.672C20.6277 21.6154 20.5234 21.5847 20.4167 21.5833ZM20.4167 17.5H18.0833C17.9286 17.5 17.7803 17.5615 17.6709 17.6709C17.5615 17.7803 17.5 17.9286 17.5 18.0833C17.5 18.238 17.5615 18.3864 17.6709 18.4958C17.7803 18.6052 17.9286 18.6667 18.0833 18.6667H20.4167C20.5714 18.6667 20.7197 18.6052 20.8291 18.4958C20.9385 18.3864 21 18.238 21 18.0833C21 17.9286 20.9385 17.7803 20.8291 17.6709C20.7197 17.5615 20.5714 17.5 20.4167 17.5Z" fill="#BDC2CC"/>
</svg>
