<svg width="28" height="28" viewBox="0 0 28 28" fill="none" xmlns="http://www.w3.org/2000/svg">
<path d="M21.4481 14.2239C21.4481 13.7199 21.2801 13.2159 21.0001 12.7679C20.7201 12.3759 20.2721 12.0399 19.7681 11.8719C17.3041 11.0879 15.7361 10.6959 13.2161 10.6959C12.6001 10.6959 12.0401 10.3039 11.8161 9.74389C11.8161 9.74389 11.8161 9.68789 11.7601 9.68789L9.96806 6.55189C9.07206 5.03989 7.44806 4.08789 5.71206 4.08789H1.12006C0.784059 4.08789 0.560059 4.31189 0.560059 4.64789C0.560059 4.98389 0.784059 5.20789 1.12006 5.20789H5.65606C7.00006 5.20789 8.28806 5.93589 8.96006 7.11189L10.7521 10.2479C11.1441 11.1999 12.0961 11.8719 13.1601 11.8719C14.3361 11.8719 15.2881 11.9839 16.2961 12.1519C17.1361 12.3199 18.0321 12.5439 19.3761 12.9919C19.6561 13.1039 19.8801 13.2719 20.0481 13.4959C20.2161 13.7199 20.3281 13.9999 20.3281 14.2799V14.5599L18.2001 14.0559C18.0321 13.9999 17.8641 14.0559 17.6961 14.1679C17.5841 14.2799 17.4721 14.4479 17.4721 14.6159V15.2879L14.9521 13.2159C14.6721 12.9919 14.2801 13.0479 14.1121 13.3839L13.2161 15.1199C13.0481 15.3999 13.1601 15.7359 13.4401 15.8479C13.7201 16.0159 14.0561 15.9039 14.1681 15.6239L14.7841 14.3919L17.6401 16.7999C17.7521 16.9119 17.8641 16.9119 17.9761 16.9119C18.0321 16.9119 18.1441 16.9119 18.2001 16.8559C18.4241 16.7439 18.5361 16.5759 18.5361 16.3519V15.1759L20.2721 15.6239V19.0399H17.3601C16.6881 18.0879 15.5681 17.3599 14.1681 17.3599C12.8801 17.3599 11.7041 18.0319 10.9761 19.0399H1.12006C0.784059 19.0399 0.560059 19.2639 0.560059 19.5999C0.560059 19.9359 0.784059 20.1599 1.12006 20.1599H10.5841C10.4161 20.7759 10.4161 21.5039 10.5841 22.1199H1.12006C0.784059 22.1199 0.560059 22.3439 0.560059 22.6799C0.560059 23.0159 0.784059 23.2399 1.12006 23.2399H11.0881C11.7601 24.2479 12.9361 24.9199 14.2801 24.9199C15.6241 24.9199 16.7441 24.2479 17.4721 23.2399H20.9441C21.2801 23.2399 21.5041 23.0159 21.5041 22.6799C21.4481 19.4879 21.4481 17.1359 21.4481 14.2239ZM14.2801 23.8559C12.8241 23.8559 11.5921 22.6239 11.5921 21.2239C11.5921 19.7119 12.8241 18.5359 14.2801 18.5359C15.7361 18.5359 16.9681 19.7119 16.9681 21.2239C16.9681 22.6239 15.7921 23.8559 14.2801 23.8559ZM20.3281 22.1759H17.9201C18.0881 21.6159 18.0881 20.8319 17.9201 20.2159H20.3281V22.1759Z" fill="#BDC2CC"/>
<path d="M8.84806 12.7119C9.12806 12.2639 9.18406 11.6479 8.96006 11.1439V11.0879L7.33606 8.28793C6.94406 7.61593 6.21606 7.22393 5.43206 7.22393H1.12006C0.784059 7.22393 0.560059 7.44793 0.560059 7.78393V12.8799C0.560059 13.2159 0.784059 13.4399 1.12006 13.4399H7.50406C8.06406 13.4399 8.56806 13.1599 8.84806 12.7119ZM1.68006 8.34393H5.43206C5.82406 8.34393 6.16006 8.56793 6.32806 8.84793L7.95206 11.5919C8.00806 11.7599 8.00806 11.9279 7.89606 12.0959C7.84006 12.2079 7.72806 12.3199 7.50406 12.3199H1.68006V8.34393ZM14.2801 20.5519C13.9441 20.5519 13.6641 20.8319 13.6641 21.1679C13.6641 21.5039 13.9441 21.7839 14.2801 21.7839C14.6161 21.7839 14.8961 21.5039 14.8961 21.1679C14.8961 20.8319 14.6161 20.5519 14.2801 20.5519ZM26.8801 4.14393C27.2161 4.14393 27.4401 3.91993 27.4401 3.58393C27.4401 3.24793 27.2161 3.02393 26.8801 3.02393H23.8001C23.4641 3.02393 23.2401 3.24793 23.2401 3.58393V24.4719C23.2401 24.8079 23.4641 25.0319 23.8001 25.0319H26.8801C27.2161 25.0319 27.4401 24.8079 27.4401 24.4719C27.4401 24.1359 27.2161 23.9119 26.8801 23.9119H24.3601V4.14393H26.8801ZM1.12006 15.5679C0.784059 15.5679 0.560059 15.7919 0.560059 16.1279C0.560059 16.4639 0.784059 16.6879 1.12006 16.6879H2.24006C2.57606 16.6879 2.80006 16.4639 2.80006 16.1279C2.80006 15.7919 2.57606 15.5679 2.24006 15.5679H1.12006ZM21.7841 8.79193C21.5041 8.62393 21.1681 8.67993 21.0001 8.95993L20.2161 10.1919C20.0481 10.4719 20.1041 10.8079 20.3841 10.9759C20.6641 11.1439 21.0001 11.0319 21.1681 10.8079L21.9521 9.57593C22.1201 9.29593 22.0641 8.95993 21.7841 8.79193ZM18.0881 9.12793V7.89593C18.0881 7.55993 17.8641 7.33593 17.5281 7.33593C17.1921 7.33593 16.9681 7.55993 16.9681 7.89593V9.12793C16.9681 9.46393 17.1921 9.68793 17.5281 9.68793C17.8641 9.68793 18.0881 9.40793 18.0881 9.12793Z" fill="#BDC2CC"/>
</svg>
