<svg width="30" height="30" viewBox="0 0 30 30" fill="none" xmlns="http://www.w3.org/2000/svg">
<g clip-path="url(#clip0_3513_1998)">
<path d="M15 7.00879C13.4194 7.0086 11.8743 7.47712 10.56 8.3551C9.24577 9.23308 8.22137 10.4811 7.61638 11.9413C7.0114 13.4015 6.85301 15.0083 7.16125 16.5585C7.46949 18.1087 8.23051 19.5327 9.34807 20.6504C10.4656 21.7681 11.8895 22.5293 13.4397 22.8377C14.9899 23.1461 16.5967 22.9879 18.057 22.3831C19.5172 21.7783 20.7654 20.754 21.6435 19.4398C22.5216 18.1257 22.9903 16.5806 22.9903 15C22.9878 12.8816 22.1452 10.8505 20.6473 9.35244C19.1494 7.85436 17.1185 7.01152 15 7.00879ZM15 22.0529C13.6048 22.053 12.2409 21.6395 11.0808 20.8645C9.92067 20.0895 9.01643 18.9878 8.48243 17.6989C7.94843 16.4099 7.80867 14.9916 8.08081 13.6232C8.35295 12.2548 9.02477 10.9979 10.0113 10.0113C10.9979 9.02481 12.2548 8.35298 13.6232 8.08084C14.9916 7.8087 16.4099 7.94847 17.6989 8.48247C18.9878 9.01646 20.0894 9.92071 20.8644 11.0808C21.6394 12.241 22.053 13.6049 22.0528 15C22.0506 16.8699 21.3068 18.6625 19.9846 19.9847C18.6625 21.3068 16.8698 22.0506 15 22.0529Z" fill="#ABB7CE"/>
<path d="M29.069 12.1519L27.0384 11.7619C26.758 10.7174 26.3419 9.71419 25.8009 8.77779L26.9625 7.06498C27.0241 6.97464 27.0523 6.86559 27.042 6.7567C27.0317 6.64781 26.9837 6.54594 26.9062 6.46873L23.5312 3.09373C23.4541 3.01674 23.3526 2.96901 23.2442 2.95874C23.1357 2.94847 23.027 2.97632 22.9369 3.03748L21.2231 4.19904C20.2864 3.65798 19.2829 3.24194 18.2381 2.96154L17.8481 0.930918C17.8276 0.823846 17.7704 0.727266 17.6864 0.657796C17.6024 0.588326 17.4968 0.550311 17.3878 0.550293H12.6122C12.5032 0.550311 12.3976 0.588326 12.3135 0.657796C12.2295 0.727266 12.1724 0.823846 12.1519 0.930918L11.7619 2.96154C10.7175 3.24228 9.71432 3.6583 8.77779 4.19904L7.06498 3.03748C6.97464 2.97582 6.86559 2.9477 6.7567 2.95797C6.64781 2.96824 6.54594 3.01627 6.46873 3.09373L3.09373 6.46873C3.01674 6.54583 2.96901 6.64733 2.95874 6.75581C2.94848 6.86428 2.97632 6.97294 3.03748 7.06311L4.19904 8.77779C3.6583 9.71432 3.24228 10.7175 2.96154 11.7619L0.930919 12.1519C0.823847 12.1724 0.727267 12.2295 0.657797 12.3135C0.588327 12.3976 0.550312 12.5032 0.550294 12.6122V17.3869C0.550094 17.496 0.588009 17.6019 0.657498 17.6861C0.726986 17.7703 0.823689 17.8276 0.930919 17.8481L2.96154 18.2381C3.2417 19.2824 3.65776 20.2853 4.19904 21.2212L3.03748 22.935C2.97632 23.0252 2.94848 23.1338 2.95874 23.2423C2.96901 23.3508 3.01674 23.4523 3.09373 23.5294L6.46873 26.9044C6.54571 26.9815 6.64716 27.0294 6.75563 27.0398C6.86411 27.0503 6.97283 27.0226 7.06311 26.9615L8.77592 25.8C9.71229 26.341 10.7155 26.7571 11.76 27.0375L12.15 29.0681C12.1705 29.1752 12.2276 29.2718 12.3117 29.3412C12.3957 29.4107 12.5013 29.4487 12.6103 29.4487H17.3859C17.4949 29.4487 17.6005 29.4107 17.6845 29.3412C17.7686 29.2718 17.8257 29.1752 17.8462 29.0681L18.2362 27.0375C19.281 26.7571 20.2845 26.341 21.2212 25.8L22.934 26.9615C23.0244 27.0236 23.1335 27.052 23.2426 27.0419C23.3517 27.0318 23.4538 26.9838 23.5312 26.9062L26.9062 23.5312C26.9836 23.4542 27.0317 23.3526 27.0421 23.2439C27.0525 23.1352 27.0247 23.0263 26.9634 22.9359L25.8019 21.2231C26.3427 20.287 26.7587 19.2841 27.0394 18.24L29.0709 17.85C29.178 17.8293 29.2745 17.7719 29.3438 17.6877C29.4131 17.6035 29.4508 17.4978 29.4506 17.3887V12.6122C29.4505 12.503 29.4124 12.3973 29.3427 12.3133C29.2731 12.2292 29.1763 12.1722 29.069 12.1519ZM28.5122 16.9997L26.5687 17.3747C26.4803 17.3916 26.3985 17.4337 26.3334 17.4959C26.2682 17.5581 26.2223 17.6377 26.2012 17.7253C25.9208 18.8784 25.4629 19.981 24.8437 20.9934C24.7967 21.0703 24.7728 21.1592 24.775 21.2493C24.7771 21.3394 24.8052 21.427 24.8559 21.5015L25.9687 23.1403L23.1412 25.9687L21.5025 24.8578C21.4287 24.808 21.3423 24.7802 21.2533 24.7777C21.1643 24.7752 21.0764 24.7981 21 24.8437C19.9835 25.4646 18.8765 25.9233 17.7187 26.2031C17.6315 26.2243 17.5521 26.2701 17.4901 26.3351C17.4281 26.4001 17.3861 26.4815 17.369 26.5697L16.994 28.5122H12.9994L12.6244 26.5697C12.6072 26.4814 12.5651 26.3999 12.5029 26.3349C12.4407 26.2699 12.3612 26.2241 12.2737 26.2031C11.1205 25.922 10.018 25.4634 9.00561 24.8437C8.92881 24.7969 8.84015 24.7731 8.75022 24.7753C8.66029 24.7774 8.57288 24.8054 8.49842 24.8559L6.85967 25.9687L4.03123 23.1403L5.14217 21.5006C5.19246 21.4262 5.22035 21.339 5.22251 21.2493C5.22467 21.1595 5.20101 21.071 5.15436 20.9944C4.53571 19.9807 4.07779 18.8773 3.79686 17.7234C3.77583 17.636 3.7301 17.5564 3.6651 17.4942C3.6001 17.4321 3.51859 17.3899 3.43029 17.3728L1.48779 16.9978V12.9994L3.43029 12.6244C3.51764 12.6078 3.59849 12.5668 3.66339 12.506C3.72829 12.4453 3.77458 12.3673 3.79686 12.2812C4.07757 11.1255 4.53616 10.0205 5.15623 9.00561C5.20308 8.92881 5.22685 8.84015 5.22468 8.75022C5.22252 8.66029 5.19453 8.57288 5.14404 8.49842L4.03123 6.85967L6.85967 4.03123L8.49842 5.14123C8.57288 5.19172 8.66029 5.21971 8.75022 5.22187C8.84015 5.22403 8.92881 5.20027 9.00561 5.15342C10.0206 4.53433 11.1257 4.07669 12.2812 3.79686C12.3687 3.77583 12.4482 3.7301 12.5104 3.6651C12.5726 3.6001 12.6147 3.51859 12.6319 3.43029L13.0069 1.48779H17.0081L17.3831 3.43029C17.4002 3.51847 17.4422 3.5999 17.5042 3.66488C17.5662 3.72987 17.6455 3.77568 17.7328 3.79686C18.8856 4.07823 19.9878 4.53682 21 5.15623C21.0768 5.20308 21.1654 5.22684 21.2554 5.22468C21.3453 5.22252 21.4327 5.19453 21.5072 5.14404L23.1412 4.03123L25.9687 6.85967L24.8578 8.49842C24.8073 8.57288 24.7793 8.66029 24.7772 8.75022C24.775 8.84015 24.7988 8.92881 24.8456 9.00561C25.4649 10.0204 25.9222 11.1256 26.2012 12.2812C26.2224 12.3689 26.2684 12.4487 26.3338 12.5109C26.3991 12.5731 26.481 12.6151 26.5697 12.6319L28.5122 13.0069V16.9997Z" fill="#ABB7CE"/>
<path d="M15.0001 4.9292C13.0083 4.9292 11.0612 5.51983 9.40513 6.62641C7.74903 7.73298 6.45825 9.3058 5.69603 11.146C4.93381 12.9861 4.73437 15.011 5.12295 16.9645C5.51153 18.918 6.47066 20.7124 7.87907 22.1208C9.28747 23.5292 11.0819 24.4884 13.0354 24.8769C14.9889 25.2655 17.0138 25.0661 18.8539 24.3039C20.6941 23.5416 22.2669 22.2509 23.3735 20.5948C24.4801 18.9387 25.0707 16.9916 25.0707 14.9998C25.0677 12.3298 24.0058 9.77007 22.1178 7.88211C20.2298 5.99414 17.6701 4.93218 15.0001 4.9292ZM15.0001 24.1329C13.1937 24.1329 11.4279 23.5973 9.92598 22.5937C8.42405 21.5902 7.25343 20.1638 6.56217 18.4949C5.8709 16.8261 5.69003 14.9897 6.04244 13.218C6.39484 11.4464 7.26469 9.81902 8.54198 8.54173C9.81927 7.26444 11.4466 6.39459 13.2183 6.04219C14.9899 5.68979 16.8263 5.87065 18.4952 6.56192C20.164 7.25318 21.5904 8.4238 22.594 9.92573C23.5975 11.4277 24.1332 13.1935 24.1332 14.9998C24.1305 17.4212 23.1674 19.7427 21.4552 21.4549C19.7429 23.1671 17.4215 24.1302 15.0001 24.1329Z" fill="#ABB7CE"/>
<path d="M13.0107 15.3797L12.0872 13.0847C12.0524 12.9983 11.9926 12.9242 11.9154 12.8719C11.8383 12.8197 11.7473 12.7916 11.6541 12.7912C11.5612 12.7911 11.4703 12.8185 11.393 12.8701C11.3158 12.9217 11.2555 12.9951 11.2201 13.0809L10.2685 15.375L9.6488 16.875C9.62529 16.9319 9.61322 16.993 9.61328 17.0546C9.61335 17.1162 9.62555 17.1772 9.64918 17.234C9.67282 17.2909 9.70743 17.3426 9.75103 17.3861C9.79464 17.4296 9.84639 17.4641 9.90333 17.4877C9.96027 17.5112 10.0213 17.5232 10.0829 17.5232C10.1445 17.5231 10.2055 17.5109 10.2624 17.4873C10.3193 17.4636 10.3709 17.429 10.4145 17.3854C10.458 17.3418 10.4925 17.2901 10.516 17.2331L11.0147 16.0256H12.2626L12.7482 17.2294C12.77 17.2881 12.8033 17.3419 12.8463 17.3876C12.8892 17.4332 12.9409 17.4698 12.9982 17.4951C13.0555 17.5204 13.1174 17.534 13.18 17.535C13.2427 17.536 13.3049 17.5245 13.363 17.501C13.4212 17.4776 13.474 17.4427 13.5184 17.3985C13.5628 17.3543 13.5979 17.3016 13.6216 17.2436C13.6453 17.1856 13.6571 17.1234 13.6564 17.0607C13.6556 16.9981 13.6423 16.9362 13.6172 16.8787L13.0107 15.3797ZM11.401 15.0938L11.6457 14.5003L11.8847 15.0938H11.401ZM19.0369 12.4688C18.9126 12.4688 18.7934 12.5181 18.7055 12.606C18.6176 12.694 18.5682 12.8132 18.5682 12.9375V17.0625C18.5682 17.1868 18.6176 17.306 18.7055 17.394C18.7934 17.4819 18.9126 17.5313 19.0369 17.5313C19.1612 17.5313 19.2805 17.4819 19.3684 17.394C19.4563 17.306 19.5057 17.1868 19.5057 17.0625V12.9375C19.5057 12.8132 19.4563 12.694 19.3684 12.606C19.2805 12.5181 19.1612 12.4688 19.0369 12.4688ZM16.0829 12.4688H14.8894C14.7651 12.4688 14.6459 12.5181 14.558 12.606C14.4701 12.694 14.4207 12.8132 14.4207 12.9375V17.0625C14.4207 17.1868 14.4701 17.306 14.558 17.394C14.6459 17.4819 14.7651 17.5313 14.8894 17.5313C15.0137 17.5313 15.133 17.4819 15.2209 17.394C15.3088 17.306 15.3582 17.1868 15.3582 17.0625V15.4687H16.0829C16.4807 15.4687 16.8622 15.3107 17.1435 15.0294C17.4248 14.7481 17.5829 14.3666 17.5829 13.9687C17.5829 13.5709 17.4248 13.1894 17.1435 12.9081C16.8622 12.6268 16.4807 12.4688 16.0829 12.4688ZM16.0829 14.5312H15.3582V13.4062H16.0829C16.232 13.4062 16.3751 13.4655 16.4806 13.571C16.5861 13.6765 16.6454 13.8196 16.6454 13.9687C16.6454 14.1179 16.5861 14.261 16.4806 14.3665C16.3751 14.472 16.232 14.5312 16.0829 14.5312Z" fill="#ABB7CE"/>
</g>
<defs>
<clipPath id="clip0_3513_1998">
<rect width="30" height="30" fill="white"/>
</clipPath>
</defs>
</svg>
