<svg width="32" height="32" viewBox="0 0 32 32" fill="none" xmlns="http://www.w3.org/2000/svg">
<path d="M4.14788 18.4561C4.26866 18.5553 4.42324 18.6039 4.5791 18.5915C4.73495 18.5791 4.87992 18.5067 4.9835 18.3896L6.05097 17.1821L7.11362 18.3884C7.1702 18.4528 7.23984 18.5045 7.31792 18.5398C7.396 18.5752 7.48072 18.5936 7.56645 18.5937C7.72584 18.5816 7.90456 18.5195 8.01928 18.3896L9.08614 17.1821L10.1488 18.3884C10.2054 18.4528 10.275 18.5043 10.353 18.5396C10.431 18.575 10.5157 18.5933 10.6013 18.5935C10.687 18.5936 10.7717 18.5754 10.8498 18.5403C10.928 18.5052 10.9977 18.4538 11.0544 18.3896L12.1219 17.1821L13.184 18.3884C13.2405 18.4528 13.3102 18.5045 13.3883 18.5398C13.4663 18.5752 13.5511 18.5936 13.6368 18.5937H20.6762C20.8041 19.2528 21.1571 19.8469 21.6748 20.2745C22.1924 20.702 22.8425 20.9364 23.5139 20.9376H27.5972C28.3643 20.9366 29.0997 20.6315 29.642 20.0891C30.1844 19.5467 30.4896 18.8113 30.4905 18.0443V13.9543C30.4896 13.1873 30.1844 12.4519 29.642 11.9095C29.0997 11.3671 28.3643 11.062 27.5972 11.061H23.5139C22.8424 11.0622 22.1921 11.2968 21.6744 11.7246C21.1568 12.1524 20.8039 12.7468 20.6762 13.4061H4.53128C4.39137 13.4061 4.25582 13.4547 4.14788 13.5438L1.72977 15.5338C1.66097 15.5904 1.60557 15.6616 1.56753 15.7422C1.52949 15.8228 1.50977 15.9108 1.50977 15.9999C1.50977 16.089 1.52949 16.177 1.56753 16.2576C1.60557 16.3382 1.66097 16.4094 1.72977 16.466L4.14788 18.4561ZM21.8282 13.9543C21.8288 13.5074 22.0066 13.079 22.3226 12.763C22.6386 12.447 23.067 12.2692 23.5139 12.2686H27.5972C28.0441 12.2692 28.4725 12.447 28.7885 12.763C29.1045 13.079 29.2823 13.5074 29.283 13.9543V18.0443C29.2823 18.4912 29.1045 18.9196 28.7885 19.2356C28.4725 19.5516 28.0441 19.7294 27.5972 19.73H23.5139C23.067 19.7294 22.6386 19.5516 22.3226 19.2356C22.0066 18.9196 21.8288 18.4912 21.8282 18.0443V13.9543ZM4.74743 14.6136H20.6206V17.3862H13.9091L12.5747 15.8707C12.46 15.7409 12.2819 15.6576 12.1219 15.666C12.0364 15.666 11.9519 15.6841 11.874 15.7192C11.796 15.7543 11.7264 15.8055 11.6697 15.8695L10.6022 17.077L9.53958 15.8707C9.48301 15.8064 9.41339 15.7548 9.33536 15.7195C9.25734 15.6841 9.17268 15.6658 9.08702 15.6657C9.00136 15.6656 8.91666 15.6837 8.83853 15.7188C8.76041 15.754 8.69066 15.8053 8.63392 15.8695L7.56705 17.077L6.50441 15.8707C6.38969 15.7409 6.20433 15.6576 6.05158 15.666C5.96599 15.6659 5.88135 15.684 5.80328 15.7191C5.72521 15.7541 5.65549 15.8054 5.59875 15.8695L4.46547 17.1531L3.0635 15.9999L4.74803 14.6136H4.74743Z" fill="#B0BACE"/>
<path d="M25.559 18.3054C26.8269 18.3054 27.8588 17.2711 27.8588 15.9989C27.8588 14.7268 26.8263 13.6937 25.5584 13.6937C24.2875 13.6937 23.2526 14.728 23.2526 15.9996C23.2526 17.2711 24.2875 18.3054 25.559 18.3054ZM25.559 14.9013C26.161 14.9013 26.6512 15.394 26.6512 15.9996C26.6512 16.6051 26.161 17.0984 25.5584 17.0984C25.2671 17.0981 24.9879 16.9822 24.7819 16.7762C24.576 16.5702 24.4603 16.2908 24.4601 15.9996C24.4601 15.394 24.9528 14.9013 25.559 14.9013ZM11.959 5.97691V11.595C11.959 11.7552 12.0226 11.9087 12.1358 12.022C12.2491 12.1352 12.4026 12.1988 12.5628 12.1988C12.7229 12.1988 12.8765 12.1352 12.9897 12.022C13.1029 11.9087 13.1665 11.7552 13.1665 11.595V5.97631C14.0565 5.71366 14.7122 4.89797 14.7122 3.92348C14.7116 3.35345 14.4848 2.80695 14.0818 2.40387C13.6787 2.0008 13.1322 1.77408 12.5622 1.77344C11.9921 1.77408 11.4455 2.00078 11.0424 2.40384C10.6392 2.80689 10.4123 3.35339 10.4115 3.92348C10.4115 4.89857 11.0678 5.71427 11.959 5.97691ZM12.5622 2.98098C13.0814 2.98098 13.5041 3.40363 13.5041 3.92348C13.5041 4.44332 13.0814 4.86597 12.5622 4.86597C12.0429 4.86597 11.6191 4.44332 11.6191 3.92408C11.6191 3.40483 12.0417 2.98098 12.5622 2.98098ZM15.8189 12.1988C15.9791 12.1988 16.1326 12.1352 16.2459 12.022C16.3591 11.9087 16.4227 11.7552 16.4227 11.595V9.10747C16.4227 8.91542 16.499 8.73123 16.6347 8.59537C16.7704 8.45951 16.9546 8.38311 17.1466 8.38295H17.7999C18.0625 9.27412 18.8782 9.92981 19.8527 9.92981C20.4229 9.92933 20.9695 9.70268 21.3727 9.29959C21.7759 8.8965 22.0027 8.34991 22.0034 7.77978C22.0027 7.20969 21.776 6.66313 21.373 6.25996C20.9699 5.85679 20.4234 5.62993 19.8533 5.62914C18.8789 5.62914 18.0632 6.28544 17.7999 7.176H17.1472C16.6352 7.17648 16.1443 7.38005 15.7822 7.74203C15.4201 8.10402 15.2164 8.59487 15.2158 9.10687V11.595C15.2158 11.7552 15.2794 11.9087 15.3926 12.022C15.5058 12.1352 15.6588 12.1988 15.8189 12.1988ZM19.8533 6.83729C20.3726 6.83729 20.7958 7.25993 20.7958 7.77978C20.7958 8.29963 20.3732 8.72227 19.8533 8.72227C19.3335 8.72227 18.9102 8.29963 18.9102 7.77978C18.9102 7.25993 19.3335 6.83668 19.8533 6.83668V6.83729ZM5.2704 9.92921C6.24489 9.92921 7.06059 9.27351 7.32323 8.38295H7.97651C8.16836 8.38311 8.3523 8.45935 8.48801 8.59494C8.62372 8.73054 8.70012 8.91442 8.70044 9.10627V11.5944C8.70044 11.7545 8.76405 11.9081 8.87728 12.0214C8.99051 12.1346 9.14408 12.1982 9.30421 12.1982C9.46434 12.1982 9.61791 12.1346 9.73114 12.0214C9.84437 11.9081 9.90798 11.7545 9.90798 11.5944V9.10687C9.90766 8.59466 9.70409 8.1035 9.34195 7.74125C8.97982 7.37901 8.48873 7.17528 7.97651 7.1748H7.32383C7.06059 6.28483 6.24489 5.62914 5.271 5.62914C4.70092 5.62977 4.15436 5.85648 3.75119 6.25954C3.34802 6.66259 3.12116 7.20909 3.12036 7.77917C3.121 8.34931 3.34781 8.8959 3.75101 9.29899C4.15421 9.70208 4.70027 9.92873 5.2704 9.92921ZM5.2704 6.83608C5.51329 6.84673 5.74271 6.95071 5.91082 7.12635C6.07893 7.302 6.17276 7.53574 6.17276 7.77887C6.17276 8.022 6.07893 8.25575 5.91082 8.43139C5.74271 8.60703 5.51329 8.71101 5.2704 8.72166C4.75055 8.72166 4.3273 8.29902 4.3273 7.77917C4.3273 7.25932 4.74995 6.83608 5.2704 6.83608ZM12.5616 19.8009C12.4014 19.8009 12.2479 19.8645 12.1346 19.9778C12.0214 20.091 11.9578 20.2446 11.9578 20.4047V26.0234C11.0672 26.286 10.4121 27.1017 10.4121 28.0762C10.4128 28.6462 10.6394 29.1926 11.0424 29.5956C11.4453 29.9987 11.9916 30.2255 12.5616 30.2263C13.1316 30.2258 13.6782 29.9992 14.0813 29.5963C14.4845 29.1933 14.7114 28.6469 14.7122 28.0768C14.7122 27.1017 14.0559 26.2854 13.1653 26.0228V20.4047C13.1653 20.2446 13.1017 20.091 12.9885 19.9778C12.8753 19.8645 12.7217 19.8009 12.5616 19.8009ZM13.5047 28.0762C13.5047 28.5961 13.082 29.0187 12.5622 29.0187C12.0423 29.0187 11.6191 28.5961 11.6191 28.0768C11.6191 27.5576 12.0417 27.1337 12.5622 27.1337C13.0826 27.1337 13.5041 27.5564 13.5041 28.0762H13.5047ZM8.70044 20.4053V22.8934C8.70012 23.0853 8.62372 23.2692 8.48801 23.4048C8.3523 23.5404 8.16836 23.6166 7.97651 23.6168H7.32383C7.06119 22.7262 6.24489 22.0705 5.271 22.0705C4.70092 22.0711 4.15436 22.2978 3.75119 22.7009C3.34802 23.104 3.12116 23.6504 3.12036 24.2205C3.12084 24.7908 3.34758 25.3375 3.7508 25.7407C4.15402 26.144 4.70076 26.3707 5.271 26.3712C6.24489 26.3712 7.06059 25.7149 7.32383 24.8243H7.97712C8.48912 24.8238 8.98003 24.6203 9.34213 24.2583C9.70423 23.8963 9.90795 23.4054 9.90859 22.8934V20.4053C9.90859 20.2452 9.84498 20.0916 9.73175 19.9784C9.61852 19.8651 9.46494 19.8015 9.30481 19.8015C9.14468 19.8015 8.99111 19.8651 8.87788 19.9784C8.76465 20.0916 8.70104 20.2452 8.70104 20.4053H8.70044ZM5.2704 25.163C4.75055 25.163 4.3273 24.7404 4.3273 24.2211C4.3273 23.7019 4.74995 23.278 5.2704 23.278C5.51631 23.2843 5.75006 23.3863 5.92179 23.5625C6.09352 23.7386 6.18963 23.9748 6.18963 24.2208C6.18963 24.4668 6.09352 24.7031 5.92179 24.8792C5.75006 25.0553 5.51631 25.1568 5.2704 25.163ZM15.8195 19.8015C15.6594 19.8015 15.5058 19.8651 15.3926 19.9784C15.2794 20.0916 15.2158 20.2452 15.2158 20.4053V22.8934C15.2164 23.4054 15.4201 23.8963 15.7822 24.2583C16.1443 24.6203 16.6352 24.8238 17.1472 24.8243H17.8005C18.0632 25.7149 18.8795 26.3712 19.8533 26.3712C20.4236 26.3707 20.9703 26.144 21.3735 25.7407C21.7768 25.3375 22.0035 24.7908 22.004 24.2205C22.0032 23.6506 21.7764 23.1041 21.3734 22.7011C20.9703 22.2981 20.4239 22.0713 19.8539 22.0705C18.8789 22.0705 18.0632 22.7262 17.8005 23.6168H17.1472C16.9554 23.6166 16.7714 23.5404 16.6357 23.4048C16.5 23.2692 16.4236 23.0853 16.4233 22.8934V20.4053C16.4233 20.2452 16.3597 20.0916 16.2465 19.9784C16.1332 19.8651 15.9797 19.8015 15.8195 19.8015ZM19.8539 23.278C20.3732 23.278 20.7964 23.7007 20.7964 24.2205C20.7964 24.7404 20.3738 25.1636 19.8539 25.1636C19.3341 25.1636 18.9109 24.741 18.9109 24.2205C18.9109 23.7001 19.3341 23.278 19.8539 23.278Z" fill="#B0BACE"/>
</svg>
