<svg width="28" height="28" viewBox="0 0 28 28" fill="none" xmlns="http://www.w3.org/2000/svg">
<g clip-path="url(#clip0_3513_1964)">
<path d="M4.56051 21.1242C3.06635 21.1242 1.85083 19.9087 1.85083 18.4145C1.85083 16.9203 3.06635 15.7048 4.56051 15.7048C6.05467 15.7048 7.27018 16.9203 7.27018 18.4145C7.27018 19.9087 6.05467 21.1242 4.56051 21.1242ZM4.56051 16.6123C3.56538 16.6123 2.75586 17.4207 2.75586 18.4145C2.75586 19.4083 3.56538 20.2167 4.56051 20.2167C5.55564 20.2167 6.36515 19.4083 6.36515 18.4145C6.36515 17.4207 5.55564 16.6123 4.56051 16.6123ZM25.4221 11.7803C25.3177 11.7802 25.2165 11.744 25.1359 11.6778C25.0552 11.6115 24.9999 11.5194 24.9795 11.417C24.9581 11.3087 24.925 11.203 24.8808 11.1018C24.8337 10.9921 24.8318 10.8682 24.8757 10.7572C24.9196 10.6462 25.0056 10.5571 25.115 10.5094C25.2244 10.4616 25.3483 10.4591 25.4595 10.5024C25.5707 10.5457 25.6603 10.6313 25.7086 10.7405C25.7786 10.9006 25.8312 11.0686 25.8653 11.2404C25.9202 11.5161 25.7028 11.7803 25.4221 11.7803Z" fill="#BDC2CC"/>
<path d="M23.4346 0.45166C20.9174 0.45166 18.8691 2.43289 18.8691 4.86866C18.8691 5.80237 19.1667 6.69408 19.7303 7.44963C19.7346 7.45595 21.6271 10.0414 21.6271 10.0414C20.8659 10.8568 20.7428 12.104 21.3455 13.046L18.0629 16.29C17.7629 16.0886 17.4226 15.9549 17.0657 15.8983C16.7087 15.8417 16.3438 15.8634 15.9961 15.9621L14.1983 12.0592C14.8551 11.6144 15.2875 10.8636 15.2875 10.0141C15.2875 8.6516 14.1759 7.54311 12.8095 7.54311C11.4432 7.54311 10.3315 8.6516 10.3315 10.0141C10.3315 10.2627 10.3695 10.5025 10.4381 10.729C10.4381 10.729 5.07748 13.8831 5.07003 13.8957C2.47755 13.6137 0 15.6193 0 18.2836C0 19.2173 0.297613 20.109 0.861 20.8646C0.86529 20.8709 2.73271 23.422 2.73271 23.422C2.31714 23.8732 2.08666 24.4643 2.08713 25.0777C2.08713 26.44 3.19877 27.5484 4.56513 27.5484C5.93148 27.5484 7.04313 26.44 7.04313 25.0777C7.04313 24.4488 6.80603 23.8626 6.38694 23.4105C6.38694 23.4105 8.26497 20.8713 8.26948 20.8646C8.83287 20.1088 9.13048 19.2171 9.13048 18.2836C9.13048 16.4469 7.9651 14.8696 6.31287 14.2046L10.857 11.5304C11.4473 12.2844 12.4361 12.635 13.3693 12.419L15.1873 16.3654C14.5875 16.8168 14.1976 17.531 14.1976 18.3362C14.1976 19.6987 15.3092 20.8072 16.6756 20.8072C18.0422 20.8072 19.1538 19.6987 19.1538 18.3362C19.1539 17.8307 18.9975 17.3374 18.7063 16.9242L21.9633 13.7056C22.3886 14.0219 22.9044 14.1927 23.4344 14.1929C24.3857 14.1929 25.2644 13.6394 25.6728 12.7827C25.6984 12.7292 25.7131 12.6712 25.7163 12.612C25.7194 12.5528 25.7108 12.4935 25.691 12.4376C25.6713 12.3817 25.6407 12.3303 25.601 12.2862C25.5614 12.2421 25.5134 12.2063 25.4599 12.1807C25.4064 12.1552 25.3484 12.1404 25.2892 12.1373C25.23 12.1342 25.1707 12.1427 25.1148 12.1625C25.0589 12.1823 25.0074 12.2129 24.9634 12.2525C24.9193 12.2922 24.8834 12.3402 24.8579 12.3937C24.7287 12.6616 24.5267 12.8878 24.2749 13.0462C24.0232 13.2047 23.7319 13.2891 23.4344 13.2897C22.174 13.2897 21.4044 11.8061 22.1737 10.788L23.053 11.9888C23.2305 12.2313 23.6017 12.232 23.7804 11.9906C23.7804 11.9906 27.1329 7.45821 27.137 7.45211C27.7015 6.69589 27.9998 5.80327 27.9998 4.86866C28 2.43289 25.9522 0.45166 23.4346 0.45166ZM6.14013 25.0777C6.14013 25.942 5.43381 26.6452 4.56536 26.6452C3.6969 26.6452 2.99058 25.942 2.99058 25.0777C2.99058 24.7473 3.09535 24.4348 3.283 24.1733L4.18397 25.4037C4.36168 25.6462 4.73268 25.6469 4.91152 25.4055L5.83552 24.1564C6.03346 24.4227 6.14028 24.7458 6.14013 25.0777ZM8.22771 18.2836C8.22771 19.029 7.98677 19.7414 7.5311 20.3441L4.55023 24.3752C4.55023 24.3752 1.60706 20.3536 1.59984 20.3441C1.14416 19.7414 0.903226 19.029 0.903226 18.2836C0.903226 16.3462 2.54597 14.7698 4.56536 14.7698C6.58474 14.7698 8.22771 16.3462 8.22771 18.2836ZM11.2348 10.0141C11.2348 9.14972 11.9411 8.44634 12.8095 8.44634C13.6778 8.44634 14.3843 9.14972 14.3843 10.0141C14.3843 10.8785 13.678 11.5817 12.8095 11.5817C11.9413 11.5817 11.2348 10.8785 11.2348 10.0141ZM16.6758 19.904C15.8074 19.904 15.101 19.2006 15.101 18.3362C15.101 17.4718 15.8074 16.7687 16.6758 16.7687C17.5443 16.7687 18.2508 17.4718 18.2508 18.3362C18.2508 19.2006 17.544 19.904 16.6758 19.904ZM26.4002 6.92914L23.4193 10.9602C23.4193 10.9602 20.4764 6.9384 20.4689 6.92892C20.013 6.32647 19.7723 5.61405 19.7723 4.86866C19.7723 2.93102 21.4153 1.35489 23.4346 1.35489C25.454 1.35489 27.0968 2.93102 27.0968 4.86866C27.0968 5.61382 26.8561 6.32647 26.4002 6.92914Z" fill="#BDC2CC"/>
<path d="M23.4294 7.70939C21.9352 7.70939 20.7197 6.49388 20.7197 4.99972C20.7197 3.50578 21.9352 2.29004 23.4294 2.29004C24.9233 2.29004 26.1391 3.50556 26.1391 4.99972C26.1391 6.49388 24.9233 7.70939 23.4294 7.70939ZM23.4294 3.19756C22.4343 3.19756 21.6245 4.00594 21.6245 4.99949C21.6245 5.99304 22.4343 6.80165 23.4294 6.80165C24.4245 6.80165 25.234 5.99304 25.234 4.99949C25.234 4.00594 24.4245 3.19756 23.4294 3.19756Z" fill="#BDC2CC"/>
</g>
<defs>
<clipPath id="clip0_3513_1964">
<rect width="28" height="28" fill="white"/>
</clipPath>
</defs>
</svg>
