<svg width="29" height="29" viewBox="0 0 29 29" fill="none" xmlns="http://www.w3.org/2000/svg">
<path d="M1.8125 9.74219C2.81352 9.74219 3.625 8.9307 3.625 7.92969C3.625 6.92867 2.81352 6.11719 1.8125 6.11719C0.811484 6.11719 0 6.92867 0 7.92969C0 8.9307 0.811484 9.74219 1.8125 9.74219Z" fill="#AEB9CE"/>
<path d="M13.1406 25.375C14.1416 25.375 14.9531 24.5635 14.9531 23.5625C14.9531 22.5615 14.1416 21.75 13.1406 21.75C12.1396 21.75 11.3281 22.5615 11.3281 23.5625C11.3281 24.5635 12.1396 25.375 13.1406 25.375Z" fill="#AEB9CE"/>
<path d="M11.7812 15.8594C12.7823 15.8594 13.5938 15.0479 13.5938 14.0469C13.5938 13.0459 12.7823 12.2344 11.7812 12.2344C10.7802 12.2344 9.96875 13.0459 9.96875 14.0469C9.96875 15.0479 10.7802 15.8594 11.7812 15.8594Z" fill="#AEB9CE"/>
<path d="M19.0312 20.3906C20.0323 20.3906 20.8438 19.5791 20.8438 18.5781C20.8438 17.5771 20.0323 16.7656 19.0312 16.7656C18.0302 16.7656 17.2188 17.5771 17.2188 18.5781C17.2188 19.5791 18.0302 20.3906 19.0312 20.3906Z" fill="#AEB9CE"/>
<path d="M25.1484 24.0156C26.1495 24.0156 26.9609 23.2041 26.9609 22.2031C26.9609 21.2021 26.1495 20.3906 25.1484 20.3906C24.1474 20.3906 23.3359 21.2021 23.3359 22.2031C23.3359 23.2041 24.1474 24.0156 25.1484 24.0156Z" fill="#AEB9CE"/>
<path d="M3.625 22.4297C4.62602 22.4297 5.4375 21.6182 5.4375 20.6172C5.4375 19.6162 4.62602 18.8047 3.625 18.8047C2.62398 18.8047 1.8125 19.6162 1.8125 20.6172C1.8125 21.6182 2.62398 22.4297 3.625 22.4297Z" fill="#AEB9CE"/>
<path d="M27.1875 13.1406C28.1885 13.1406 29 12.3291 29 11.3281C29 10.3271 28.1885 9.51562 27.1875 9.51562C26.1865 9.51562 25.375 10.3271 25.375 11.3281C25.375 12.3291 26.1865 13.1406 27.1875 13.1406Z" fill="#AEB9CE"/>
<path d="M21.75 7.25C22.751 7.25 23.5625 6.43852 23.5625 5.4375C23.5625 4.43648 22.751 3.625 21.75 3.625C20.749 3.625 19.9375 4.43648 19.9375 5.4375C19.9375 6.43852 20.749 7.25 21.75 7.25Z" fill="#AEB9CE"/>
<path d="M21.1175 20.3188L22.6128 21.2303C22.7218 20.9462 22.8777 20.6824 23.0741 20.45L21.5729 19.5351C21.466 19.82 21.3121 20.0849 21.1175 20.3188ZM24.8698 12.7419L23.8403 13.6366L22.7161 7.97566C22.4319 8.08424 22.1314 8.14399 21.8273 8.15238L23.0523 14.3212L20.6562 16.4033C20.9006 16.5851 21.1129 16.8064 21.2845 17.0581L23.2556 15.3453L24.1183 19.6885C24.4 19.5736 24.6992 19.5071 25.003 19.4918L24.0435 14.6604L25.4623 13.4277C25.2281 13.2336 25.0278 13.0018 24.8698 12.7419ZM15.4471 22.1306L17.2143 20.5947C16.9876 20.3915 16.7965 20.1518 16.6488 19.8856L14.8485 21.45C15.0845 21.642 15.2867 21.8721 15.4471 22.1306ZM19.418 6.82812L13.4536 11.9077C13.6932 12.0953 13.8999 12.3217 14.0651 12.5774L20.0044 7.51914C19.7719 7.32299 19.5737 7.08945 19.418 6.82812ZM17.0172 16.7584L14.2891 15.0954C14.1705 15.3756 14.0057 15.6339 13.8016 15.8596L16.5267 17.5205C16.6464 17.2408 16.8122 16.9832 17.0172 16.7584ZM3.80902 9.76891L9.24289 13.081C9.35095 12.7967 9.50595 12.5324 9.70146 12.2994L4.3061 9.01038C4.18401 9.28913 4.01607 9.54545 3.80925 9.76868L3.80902 9.76891ZM7.66194 16.8401L5.51594 18.6681C5.73461 18.8807 5.91611 19.1284 6.05289 19.401L8.19663 17.5753L11.1816 21.6822C11.3922 21.4629 11.638 21.2803 11.9089 21.1419L8.88878 16.9861L9.96835 16.0669C9.74145 15.8641 9.55002 15.6248 9.40194 15.3589L8.35454 16.2509L3.71568 9.86837C3.49809 10.0811 3.24646 10.2559 2.97119 10.3856L7.66194 16.8401Z" fill="#AEB9CE"/>
</svg>
