<svg width="26" height="26" viewBox="0 0 26 26" fill="none" xmlns="http://www.w3.org/2000/svg">
<path d="M18.85 15.3999L15.8 12.3499L21.35 6.7999C23.5 5.6999 22.15 6.7999 24.9 3.2499C25.05 3.0499 25.05 2.7499 24.85 2.5999L23.45 1.1999C23.25 0.999901 23 0.999901 22.8 1.1499C19.4 3.6999 20.15 2.8499 19.25 4.6999L13.65 10.1999L10.6 7.1499C11.6 3.3999 7.99998 -9.93609e-05 4.29998 1.2499C4.19999 1.2999 4.04998 1.4499 3.99998 1.6499C3.99998 1.7999 4.04998 1.9999 4.14998 2.0999L6.59998 4.5499C7.14998 5.0999 7.14998 6.0499 6.59998 6.5999C6.04998 7.1499 5.09999 7.1499 4.54998 6.5999L2.09998 4.1499C1.94998 4.0499 1.79998 3.9999 1.59998 4.0499C1.44998 4.0499 1.29998 4.1999 1.24998 4.3499C-1.51396e-05 8.0499 3.34998 11.6499 7.14998 10.6499L10.2 13.6999L8.99998 14.8999C8.89998 14.8499 7.59999 13.1499 6.79998 14.5499C6.24998 15.5499 7.19999 16.3999 6.39998 16.5999C5.89998 16.7499 5.24998 16.8999 4.59998 17.2499C3.69998 17.7499 3.09998 18.1999 2.74998 18.6499C1.29998 20.4999 0.649985 22.9999 1.14998 23.4499C2.64998 24.7999 2.44998 24.9499 2.94998 24.9499C3.44999 24.9499 5.24998 24.8499 7.34998 23.1999C7.99998 22.6999 8.94998 21.3499 9.39998 19.5499C9.59998 18.7499 10.45 19.7499 11.45 19.1499C11.75 18.9499 11.95 18.6999 11.95 18.3999C12 17.6999 11.35 17.2499 11.05 16.9499L12.25 15.7499L15.3 18.7999C14.55 21.9999 16.9 24.9999 20.1 24.9999C20.65 24.9999 21.15 24.8999 21.7 24.7499C21.85 24.6999 22 24.5499 22.05 24.3999C22.1 24.2499 22.05 24.0499 21.9 23.9499L19.4 21.4999C18 20.0999 20.15 18.1499 21.45 19.4499L23.9 21.8999C24 21.9999 24.2 22.0499 24.35 22.0499C24.5 21.9999 24.65 21.8999 24.7 21.6999C26 17.9499 22.6 14.3499 18.85 15.3999ZM10.95 18.3499C10.5 18.5999 8.84998 17.6499 8.39998 19.3499C7.99998 20.8999 7.14998 22.0999 6.69998 22.4499C4.99998 23.7499 3.54998 23.9499 3.04998 23.9999L1.99998 22.8999C1.99998 22.3999 2.19998 20.9499 3.54998 19.2499C3.79998 18.9499 4.34998 18.5499 5.09998 18.0999C6.44998 17.3499 8.04998 17.6499 7.64998 15.6999C7.49998 14.9999 7.64998 14.9999 7.64998 14.9499C7.74998 15.0499 10.9 18.1999 10.95 18.3499C11 18.3499 11 18.3499 10.95 18.3499ZM20.1 5.1499L20.75 3.8499L23.05 2.0999L23.85 2.8999L22.1 5.1999C20.2 6.1499 21.8 4.8499 15.05 11.5499L14.35 10.8499C20.3 4.9499 20 5.2999 20.1 5.1499ZM3.14998 8.6499C2.29998 7.7999 1.89998 6.6499 2.04998 5.4999C3.54998 6.7999 4.04998 7.9999 5.59998 7.9999C6.24998 7.9999 6.84998 7.7499 7.34998 7.2999C8.29998 6.3499 8.29998 4.7999 7.34998 3.7999L5.49998 2.0499C10.1 1.5499 11.55 8.1999 7.14998 9.6499C7.09998 9.5999 4.79998 10.3499 3.14998 8.6499ZM10.25 8.1999L13.3 11.2499L14.7 12.6499L17.8 15.7499C16.9 16.1999 16.15 16.9999 15.75 17.7999L8.19998 10.2499C8.99998 9.8499 9.79998 9.0999 10.25 8.1999ZM11.6 15.0999L10.4 16.2999L9.69998 15.5999L10.9 14.3999L11.6 15.0999ZM24 20.4999L22.2 18.6999C21.4 17.8999 20.4 17.9499 20.45 17.9999C18.3 17.9999 17.15 20.6499 18.7 22.1999L20.5 23.9999C15.2 24.5999 14.55 16.1999 20.1 16.1999C22.4 16.1999 24.25 18.1999 24 20.4999Z" fill="#BDC2CC"/>
</svg>
