<svg width="32" height="32" viewBox="0 0 32 32" fill="none" xmlns="http://www.w3.org/2000/svg">
<path d="M16.0001 9.33315C16.4443 9.33293 16.8759 9.48058 17.2269 9.75282C17.5779 10.0251 17.8282 10.4064 17.9385 10.8367C18.0488 11.267 18.0127 11.7217 17.8359 12.1292C17.6591 12.5367 17.3517 12.8737 16.9621 13.0872C17.9008 16.2812 21.0901 21.3712 26.5234 28.2538C26.5777 28.3225 26.6178 28.4013 26.6416 28.4855C26.6654 28.5698 26.6724 28.6579 26.6622 28.7448C26.6519 28.8318 26.6247 28.9159 26.5819 28.9923C26.5392 29.0687 26.4818 29.1359 26.4131 29.1902C26.3444 29.2444 26.2656 29.2846 26.1814 29.3084C26.0971 29.3322 26.009 29.3392 25.9221 29.3289C25.8351 29.3187 25.7511 29.2914 25.6746 29.2487C25.5982 29.2059 25.531 29.1485 25.4768 29.0798L24.9208 28.3718C24.4791 27.8064 24.0413 27.2379 23.6074 26.6665H8.39343C8.1121 27.0372 7.82343 27.4132 7.5281 27.7945L7.07943 28.3718L6.52343 29.0798C6.41381 29.2186 6.25354 29.3082 6.07788 29.3288C5.90222 29.3494 5.72556 29.2994 5.58676 29.1898C5.44797 29.0802 5.3584 28.9199 5.33777 28.7443C5.31715 28.5686 5.36714 28.392 5.47676 28.2532L6.04076 27.5358C11.1308 21.0172 14.1321 16.1698 15.0388 13.0865C14.6496 12.8729 14.3426 12.536 14.166 12.1287C13.9894 11.7214 13.9534 11.2669 14.0635 10.8369C14.1736 10.4069 14.4237 10.0257 14.7743 9.75347C15.125 9.48122 15.5562 9.33335 16.0001 9.33315ZM20.6934 22.6645L20.6668 22.6665H11.3334L11.3068 22.6645C10.7174 23.5158 10.0801 24.4052 9.39343 25.3332H22.6068C21.9551 24.4536 21.3172 23.564 20.6934 22.6645ZM16.0001 14.3912L15.9401 14.5492C15.2254 16.4032 13.9821 18.6605 12.2101 21.3332H19.7901C17.9674 18.5845 16.7041 16.2745 16.0001 14.3912ZM25.7954 2.95315C28.0744 5.41403 29.3383 8.64579 29.3334 11.9998C29.3334 15.0918 28.2768 18.0232 26.3734 20.3778C26.2622 20.5154 26.1009 20.6031 25.925 20.6218C25.7491 20.6404 25.573 20.5884 25.4354 20.4772C25.2979 20.3659 25.2101 20.2046 25.1915 20.0287C25.1729 19.8528 25.2249 19.6767 25.3361 19.5392C27.0638 17.4067 28.0046 14.7443 28.0001 11.9998C28.0048 8.98137 26.8673 6.07292 24.8161 3.85849C24.7554 3.79441 24.7081 3.71893 24.6769 3.63643C24.6456 3.55392 24.631 3.46603 24.634 3.37785C24.6369 3.28967 24.6574 3.20296 24.6941 3.12273C24.7308 3.04251 24.7831 2.97037 24.8479 2.9105C24.9127 2.85064 24.9888 2.80423 25.0716 2.77397C25.1545 2.74371 25.2426 2.73021 25.3307 2.73424C25.4188 2.73827 25.5053 2.75975 25.5851 2.79744C25.6649 2.83514 25.7364 2.88829 25.7954 2.95382V2.95315ZM7.1861 2.87782C7.3154 2.99834 7.39154 3.16527 7.39779 3.34192C7.40405 3.51857 7.33989 3.69047 7.21943 3.81982C5.14626 6.03859 3.99524 8.96322 4.0001 11.9998C4.0001 14.7778 4.9461 17.4085 6.65343 19.5265C6.70837 19.5947 6.74933 19.673 6.77399 19.7571C6.79864 19.8411 6.80651 19.9292 6.79713 20.0162C6.78775 20.1033 6.76131 20.1877 6.71933 20.2645C6.67734 20.3414 6.62063 20.4092 6.55243 20.4642C6.48423 20.5191 6.40588 20.5601 6.32185 20.5847C6.23782 20.6094 6.14975 20.6172 6.06268 20.6079C5.97561 20.5985 5.89124 20.572 5.81439 20.5301C5.73753 20.4881 5.6697 20.4314 5.61476 20.3632C3.70272 17.9956 2.66198 15.0431 2.66676 11.9998C2.66219 8.62618 3.94112 5.37713 6.2441 2.91182C6.36462 2.78252 6.53155 2.70638 6.7082 2.70012C6.88484 2.69387 7.05674 2.75736 7.1861 2.87782ZM9.75676 5.02982C9.8838 5.1528 9.95678 5.3212 9.95966 5.49798C9.96253 5.67476 9.89507 5.84545 9.7721 5.97249C8.20486 7.58707 7.32986 9.74969 7.33343 11.9998C7.33343 13.9845 8.0021 15.8658 9.21076 17.3865C9.26526 17.455 9.30573 17.5337 9.32984 17.6178C9.35396 17.702 9.36126 17.7901 9.35132 17.8771C9.34139 17.9642 9.31441 18.0484 9.27193 18.1249C9.22946 18.2015 9.17231 18.269 9.10376 18.3235C9.03521 18.378 8.9566 18.4185 8.87241 18.4426C8.78823 18.4667 8.70011 18.474 8.6131 18.464C8.52609 18.4541 8.4419 18.4271 8.36531 18.3847C8.28873 18.3422 8.22126 18.285 8.16676 18.2165C6.76067 16.4498 5.99668 14.2577 6.0001 11.9998C5.99647 9.40389 7.00582 6.90898 8.81343 5.04582C8.87433 4.98282 8.94706 4.93244 9.02744 4.89757C9.10783 4.8627 9.19431 4.84402 9.28192 4.84259C9.36953 4.84117 9.45657 4.85703 9.53805 4.88927C9.61952 4.92151 9.69385 4.96883 9.75676 5.02982ZM23.2088 5.06849C25.0029 6.92952 26.0037 9.41482 26.0001 11.9998C26.0001 14.2765 25.2361 16.4378 23.8554 18.1885C23.8012 18.2572 23.734 18.3146 23.6575 18.3573C23.5811 18.4001 23.4971 18.4273 23.4101 18.4376C23.3232 18.4478 23.2351 18.4408 23.1508 18.417C23.0666 18.3932 22.9878 18.3531 22.9191 18.2988C22.8504 18.2446 22.793 18.1773 22.7503 18.1009C22.7075 18.0245 22.6803 17.9405 22.67 17.8535C22.6598 17.7666 22.6667 17.6784 22.6906 17.5942C22.7144 17.5099 22.7545 17.4312 22.8088 17.3625C24.0153 15.8357 24.6701 13.9458 24.6668 11.9998C24.6702 9.75954 23.8027 7.60564 22.2474 5.99315C22.1249 5.86567 22.058 5.69474 22.0615 5.51796C22.065 5.34117 22.1386 5.17302 22.2661 5.05049C22.3936 4.92796 22.5645 4.86109 22.7413 4.86459C22.9181 4.86809 23.0862 4.94101 23.2088 5.06849ZM12.2374 7.27849C12.3621 7.40377 12.432 7.57346 12.4316 7.75024C12.4312 7.92701 12.3607 8.0964 12.2354 8.22115C11.7372 8.71608 11.3421 9.30486 11.0728 9.95345C10.8036 10.602 10.6656 11.2976 10.6668 11.9998C10.6647 13.1581 11.0417 14.2852 11.7401 15.2092C11.8466 15.3503 11.8927 15.5281 11.8682 15.7032C11.8437 15.8784 11.7506 16.0366 11.6094 16.1432C11.4682 16.2497 11.2905 16.2958 11.1154 16.2713C10.9402 16.2468 10.782 16.1537 10.6754 16.0125C9.80246 14.8571 9.33119 13.4479 9.33343 11.9998C9.33234 11.1221 9.5051 10.2529 9.84174 9.44232C10.1784 8.63174 10.6722 7.89586 11.2948 7.27715C11.42 7.15244 11.5897 7.08259 11.7665 7.08296C11.9433 7.08334 12.1127 7.15324 12.2374 7.27849ZM20.7088 7.27982C21.3304 7.89848 21.8234 8.63405 22.1595 9.44414C22.4955 10.2542 22.6679 11.1228 22.6668 11.9998C22.6668 13.4578 22.1968 14.8465 21.3408 15.9905C21.2331 16.1271 21.0762 16.2162 20.9037 16.2388C20.7312 16.2614 20.5567 16.2156 20.4174 16.1113C20.2782 16.0069 20.1853 15.8523 20.1585 15.6804C20.1317 15.5085 20.1732 15.3329 20.2741 15.1912C20.9639 14.2704 21.3356 13.1503 21.3334 11.9998C21.3345 11.2983 21.1966 10.6035 20.9277 9.95547C20.6588 9.3075 20.2642 8.71918 19.7668 8.22449C19.6416 8.09957 19.5711 7.93004 19.571 7.75319C19.5708 7.57635 19.6408 7.40667 19.7658 7.28149C19.8907 7.15631 20.0602 7.08587 20.2371 7.08569C20.4139 7.0855 20.5836 7.1549 20.7088 7.27982Z" fill="#B1BBCE"/>
</svg>
